#N canvas 126 355 508 452 10;
#X declare -path motex -path motex -lib motex;
#X declare -path iemlib -lib iemlib -path zexy -lib zexy;
#X declare -path absGAMME;
#X obj 18 67 mixer;
#N canvas 404 619 712 337 stuff 1;
#X obj 19 188 loadbang;
#X msg 19 209 \; pd dsp 1;
#X obj 15 28 declare -path motex -path motex -lib motex;
#X obj 15 47 declare -path iemlib -lib iemlib -path zexy -lib zexy;
#X obj 19 73 loadbang;
#X msg 19 94 1;
#X obj 19 136 metro 20;
#X obj 19 157 s LFOrnd-bang;
#X obj 19 117 tgl 15 0 empty empty empty 17 7 0 10 #fcfcfc #000000 #000000 0 1;
#X obj 15 9 declare -path absGAMME;
#N canvas 1038 188 700 433 MASTER 1;
#X obj 134 19 catch~ master;
#X obj 136 270 *~;
#X obj 131 317 dac~;
#X obj 295 195 pow 2;
#X msg 295 216 \$1 20;
#X obj 295 237 line~;
#X obj 135 212 *~;
#X obj 189 125 pow 2;
#X obj 149 149 mull~ 0 50;
#X obj 149 172 rev3~ 100 90 2000 30;
#X obj 10 39 catch~ master-norev;
#X obj 298 170 hsl 128 15 0 1 0 1 empty empty empty -2 -8 0 10 #fcfcfc #000000 #000000 1659 1;
#X obj 176 248 limiter~;
#X obj 136 249 z~ 64;
#X obj 192 99 hsl 128 15 0 1 0 1 empty empty empty -2 -8 0 10 #fcfcfc #000000 #000000 12100 1;
#X obj 173 56 delwrite~ \$0-preDel 1000;
#X obj 172 77 delread~ \$0-preDel 500;
#X obj 295 139 r mix-Master-snd;
#X obj 211 330 - 88;
#X obj 211 351 i;
#X obj 211 372 change;
#X obj 211 308 env~ 2048;
#X obj 211 393 s master_vu;
#X obj 465 87 clone -s 1 outchan 10;
#X connect 0 0 6 0;
#X connect 0 0 15 0;
#X connect 1 0 2 0;
#X connect 1 0 2 1;
#X connect 1 0 21 0;
#X connect 3 0 4 0;
#X connect 4 0 5 0;
#X connect 5 0 6 1;
#X connect 6 0 12 0;
#X connect 6 0 13 0;
#X connect 7 0 8 1;
#X connect 8 0 9 0;
#X connect 9 0 6 0;
#X connect 10 0 6 0;
#X connect 11 0 3 0;
#X connect 12 0 1 1;
#X connect 13 0 1 0;
#X connect 14 0 7 0;
#X connect 16 0 8 0;
#X connect 17 0 11 0;
#X connect 18 0 19 0;
#X connect 19 0 20 0;
#X connect 20 0 22 0;
#X connect 21 0 18 0;
#X restore 18 260 pd MASTER;
#N canvas 1186 149 637 401 aleaGamme 0;
#X obj 297 90 GAMMEKB \$0-xtalgam;
#X floatatom 214 60 5 0 0 0 - - - 0;
#X obj 114 92 GAMMEKB \$0-gam;
#X obj 214 35 r \$0-gam;
#N canvas 1445 151 450 300 rot 0;
#X obj 92 18 inlet;
#X obj 92 89 t f f;
#X obj 119 141 >>;
#X obj 92 211 +;
#X obj 92 142 <<;
#X obj 135 78 * -1;
#X obj 135 100 + 12;
#X obj 92 67 f;
#X obj 92 234 outlet;
#X obj 187 8 inlet;
#X obj 187 54 mod 12;
#X obj 187 30 * -1;
#X obj 92 177 mod 4096;
#X connect 0 0 7 0;
#X connect 1 0 4 0;
#X connect 1 1 2 0;
#X connect 2 0 3 1;
#X connect 3 0 8 0;
#X connect 4 0 12 0;
#X connect 5 0 6 0;
#X connect 6 0 4 1;
#X connect 7 0 1 0;
#X connect 9 0 11 0;
#X connect 10 0 5 0;
#X connect 10 0 2 1;
#X connect 11 0 10 0;
#X connect 12 0 3 0;
#X restore 214 83 pd rot;
#X obj 251 57 t b f;
#X obj 214 106 s \$0-xtalgam;
#X obj 265 36 r \$0-basse;
#X obj 35 57 s \$0-gam;
#X obj 18 195 random 12;
#X obj 45 149 bng 15 250 50 0 empty empty empty 17 7 0 10 #fcfcfc #000000 #000000;
#X obj 50 257 + 24;
#X obj 25 301 s \$0-basse;
#X obj 25 105 tgl 15 0 empty empty empty 17 7 0 10 #fcfcfc #000000 #000000 0 1;
#X obj 22 81 loadbang;
#X obj 458 90 r \$0-xtalgam;
#X msg 8 33 2709;
#X obj 459 111 s /GAMME;
#X obj 443 145 s /CHORD;
#X msg 8 236 0;
#X floatatom 513 144 8 0 0 0 - - - 0;
#X floatatom 174 38 5 0 0 0 - - - 0;
#X obj 99 252 GAMMEKB \$0-gam2;
#X obj 338 196 GAMMEKB \$0-xtalgam2;
#X floatatom 222 169 5 0 0 0 - - - 0;
#N canvas 1445 151 450 300 rot 0;
#X obj 92 18 inlet;
#X obj 92 89 t f f;
#X obj 119 141 >>;
#X obj 92 211 +;
#X obj 92 142 <<;
#X obj 135 78 * -1;
#X obj 135 100 + 12;
#X obj 92 67 f;
#X obj 92 234 outlet;
#X obj 187 8 inlet;
#X obj 187 54 mod 12;
#X obj 187 30 * -1;
#X obj 92 177 mod 4096;
#X connect 0 0 7 0;
#X connect 1 0 4 0;
#X connect 1 1 2 0;
#X connect 2 0 3 1;
#X connect 3 0 8 0;
#X connect 4 0 12 0;
#X connect 5 0 6 0;
#X connect 6 0 4 1;
#X connect 7 0 1 0;
#X connect 9 0 11 0;
#X connect 10 0 5 0;
#X connect 10 0 2 1;
#X connect 11 0 10 0;
#X connect 12 0 3 0;
#X restore 222 192 pd rot;
#X obj 259 166 t b f;
#X obj 285 145 r \$0-basse;
#X obj 222 215 s \$0-xtalgam2;
#X obj 222 144 r \$0-gam2;
#X obj 460 178 r \$0-xtalgam2;
#X obj 460 199 s /GAM2;
#X msg 87 207 0;
#X msg 118 205 5;
#X msg 149 206 7;
#X obj 87 228 f;
#X floatatom 131 343 5 0 0 0 - - - 0;
#X msg 180 204 8;
#X obj 87 178 sel 0 1 2 3, f 20;
#X msg 112 40 2741;
#X obj 112 61 s \$0-gam2;
#X msg 46 33 145;
#X obj 37 7 loadbang;
#X obj 87 157 random 3;
#X obj 18 172 bng 15 250 50 0 empty empty empty 17 7 0 10 #fcfcfc #000000 #000000;
#X obj 28 122 metro 16000;
#X connect 1 0 4 0;
#X connect 3 0 1 0;
#X connect 3 0 21 0;
#X connect 4 0 6 0;
#X connect 5 0 4 0;
#X connect 5 1 4 1;
#X connect 7 0 5 0;
#X connect 9 0 11 0;
#X connect 10 0 43 0;
#X connect 11 0 12 0;
#X connect 13 0 45 0;
#X connect 14 0 13 0;
#X connect 15 0 17 0;
#X connect 15 0 18 0;
#X connect 15 0 20 0;
#X connect 16 0 8 0;
#X connect 19 0 11 0;
#X connect 24 0 25 0;
#X connect 25 0 28 0;
#X connect 26 0 25 0;
#X connect 26 1 25 1;
#X connect 27 0 26 0;
#X connect 29 0 24 0;
#X connect 30 0 31 0;
#X connect 32 0 35 0;
#X connect 33 0 35 0;
#X connect 34 0 35 0;
#X connect 35 0 11 0;
#X connect 35 0 36 0;
#X connect 37 0 35 0;
#X connect 38 0 32 0;
#X connect 38 1 33 0;
#X connect 38 2 34 0;
#X connect 38 3 37 0;
#X connect 39 0 40 0;
#X connect 41 0 8 0;
#X connect 42 0 41 0;
#X connect 42 0 39 0;
#X connect 43 0 38 0;
#X connect 44 0 9 0;
#X connect 45 0 10 0;
#X restore 19 282 pd aleaGamme;
#N canvas 1 82 644 678 basse/accord 0;
#X obj 92 120 phasor~;
#X obj 92 226 lop~ 100;
#X obj 91 43 r \$0-basse;
#X obj 173 43 osc~ 3;
#X obj 91 99 mtof~;
#X obj 91 71 sig~;
#X obj 173 64 *~ 0.2;
#X msg 293 266 71.3;
#X obj 92 200 +~;
#X obj 151 227 bp~ 280 5;
#X obj 117 170 wrap~;
#X obj 225 76 osc~ 0.05;
#X obj 117 149 +~;
#X obj 225 97 *~ 0.45;
#X obj 285 76 osc~ 0.07;
#X obj 92 268 throw~ master;
#X obj 92 247 *~ 1, f 25;
#X obj 239 223 pow 2;
#X obj 88 398 gammeRound /GAMME 300;
#X obj 88 334 loadbang;
#X obj 88 473 osc~;
#X obj 88 558 throw~ master;
#X floatatom 25 464 5 0 0 0 - - - 0;
#X floatatom 45 363 5 0 0 0 - - - 0;
#X obj 229 392 gammeRound /GAMME 300;
#X obj 229 467 osc~;
#X msg 88 373 68.1;
#X obj 380 390 gammeRound /GAMME 300;
#X obj 380 465 osc~;
#X msg 229 367 62.1;
#X obj 88 534 lop~ 500;
#X floatatom 421 360 5 0 0 0 - - - 0;
#X msg 380 365 72.6;
#X obj 433 541 osc~ 6;
#X obj 380 444 mtof~;
#X obj 229 446 mtof~;
#X obj 88 452 mtof~;
#X obj 229 419 lop~ 15;
#X obj 88 425 lop~ 15;
#X obj 380 419 lop~ 15;
#X obj 433 562 *~, f 10;
#X obj 554 533 osc~ 0.17;
#X obj 491 532 osc~ 0.13;
#X obj 432 450 osc~ 0.14;
#X obj 494 450 osc~ 0.15;
#X obj 433 516 +~ 5;
#X obj 433 583 *~ 0.1;
#X obj 88 509 *~ 0.1;
#X obj 433 495 *~ 1;
#X obj 563 449 osc~ 0.13;
#X obj 200 559 pow 2;
#X obj 200 538 r mix-Accord-snd;
#X obj 239 202 r mix-Basse-snd;
#X connect 0 0 8 0;
#X connect 0 0 12 0;
#X connect 1 0 16 0;
#X connect 2 0 5 0;
#X connect 3 0 6 0;
#X connect 4 0 0 0;
#X connect 5 0 4 0;
#X connect 6 0 4 0;
#X connect 8 0 1 0;
#X connect 8 0 9 0;
#X connect 9 0 16 0;
#X connect 10 0 8 0;
#X connect 11 0 13 0;
#X connect 12 0 10 0;
#X connect 13 0 12 1;
#X connect 14 0 13 0;
#X connect 16 0 15 0;
#X connect 17 0 16 1;
#X connect 18 0 22 0;
#X connect 18 0 38 0;
#X connect 19 0 26 0;
#X connect 19 0 29 0;
#X connect 19 0 32 0;
#X connect 20 0 47 0;
#X connect 23 0 18 0;
#X connect 24 0 37 0;
#X connect 25 0 47 0;
#X connect 26 0 18 0;
#X connect 27 0 39 0;
#X connect 28 0 47 0;
#X connect 29 0 24 0;
#X connect 30 0 21 0;
#X connect 31 0 27 0;
#X connect 32 0 27 0;
#X connect 33 0 40 0;
#X connect 34 0 28 0;
#X connect 35 0 25 0;
#X connect 36 0 20 0;
#X connect 37 0 35 0;
#X connect 38 0 36 0;
#X connect 39 0 34 0;
#X connect 40 0 46 0;
#X connect 41 0 40 1;
#X connect 42 0 40 1;
#X connect 43 0 48 0;
#X connect 44 0 48 0;
#X connect 45 0 33 0;
#X connect 46 0 36 0;
#X connect 46 0 34 0;
#X connect 46 0 35 0;
#X connect 47 0 30 0;
#X connect 48 0 45 0;
#X connect 49 0 48 0;
#X connect 50 0 47 1;
#X connect 51 0 50 0;
#X connect 52 0 17 0;
#X restore 19 304 pd basse/accord;
#X obj 140 151 auxpd Player;
#X obj 223 200 throw~ master;
#X obj 321 155 auxpd Player;
#X obj 404 204 throw~ master;
#X obj 491 155 auxpd Player;
#X obj 574 204 throw~ master;
#N canvas 444 124 450 300 params 1;
#X obj 134 201 list trim;
#X obj 134 222 outlet;
#X obj 134 82 inlet;
#X obj 134 103 route _loaded;
#X obj 134 124 b;
#X obj 134 181 list prepend SynthMonoParams -1;
#X text 98 44 orig;
#X msg 82 60 bpf1 700 \, bpf2 1600 \, bpfecho 1300;
#X msg 134 148 bpf1 1300 \, bpf2 2200 \, bpfecho 800;
#X connect 0 0 1 0;
#X connect 2 0 3 0;
#X connect 3 0 4 0;
#X connect 4 0 8 0;
#X connect 5 0 0 0;
#X connect 7 0 5 0;
#X connect 8 0 5 0;
#X restore 321 132 pd params;
#N canvas 1 82 450 300 params 0;
#X obj 134 201 list trim;
#X obj 134 222 outlet;
#X obj 134 82 inlet;
#X obj 134 103 route _loaded;
#X obj 134 124 b;
#X obj 134 181 list prepend SynthMonoParams -1;
#X text 98 44 orig;
#X msg 82 60 bpf1 700 \, bpf2 1600 \, bpfecho 1300;
#X msg 134 148 bpf1 500 \, bpf2 2600 \, bpfecho 1000;
#X connect 0 0 1 0;
#X connect 2 0 3 0;
#X connect 3 0 4 0;
#X connect 4 0 8 0;
#X connect 5 0 0 0;
#X connect 7 0 5 0;
#X connect 8 0 5 0;
#X restore 491 131 pd params;
#X obj 222 111 mic_in 1;
#X obj 405 115 mic_in 2;
#X obj 576 115 mic_in 3;
#X obj 140 223 list prepend mic1;
#X obj 321 225 list prepend mic2;
#X obj 491 225 list prepend mic3;
#X obj 299 275 r Analyse;
#X obj 299 296 spigot;
#X obj 299 317 print;
#X obj 348 298 tgl 15 0 empty empty empty 17 7 0 10 #fcfcfc #000000 #000000 0 1;
#X obj 140 285 s Analyse;
#X obj 140 263 list trim;
#X obj 576 89 adc~ 4;
#X connect 0 0 1 0;
#X connect 4 0 5 0;
#X connect 5 0 8 0;
#X connect 6 0 7 0;
#X connect 8 0 6 0;
#X connect 13 0 24 0;
#X connect 13 1 14 0;
#X connect 15 0 19 0;
#X connect 15 0 25 0;
#X connect 15 1 16 0;
#X connect 17 0 20 0;
#X connect 17 0 26 0;
#X connect 17 1 18 0;
#X connect 19 0 15 0;
#X connect 20 0 17 0;
#X connect 21 0 13 1;
#X connect 22 0 15 1;
#X connect 23 0 17 1;
#X connect 24 0 32 0;
#X connect 25 0 32 0;
#X connect 26 0 32 0;
#X connect 27 0 28 0;
#X connect 28 0 29 0;
#X connect 30 0 28 1;
#X connect 32 0 31 0;
#X connect 33 0 23 0;
#X restore 181 33 pd stuff;
#X obj 16 10 cnv 15 150 40 empty empty Arbre 10 20 2 30 #e0e0e0 #404040 0;
#X obj 270 32 send_OSC;
#X obj 346 36 OSCremote/RemoteMaster;
