#N canvas 30 453 343 173 10;
#X declare -path motex -path motex -lib motex;
#X declare -path iemlib -lib iemlib -path zexy -lib zexy;
#X declare -path absGAMME;
#X declare -path AutoPreset;
#N canvas 225 568 750 411 stuff 0;
#X obj 19 188 loadbang;
#X msg 19 209 \; pd dsp 1;
#X obj 15 28 declare -path motex -path motex -lib motex;
#X obj 15 47 declare -path iemlib -lib iemlib -path zexy -lib zexy;
#X obj 19 73 loadbang;
#X msg 19 94 1;
#X obj 19 136 metro 20;
#X obj 19 157 s LFOrnd-bang;
#X obj 19 117 tgl 15 0 empty empty empty 17 7 0 10 #fcfcfc #000000 #000000 0 1;
#X obj 15 9 declare -path absGAMME;
#N canvas 412 216 316 408 MASTER 0;
#X obj 46 26 catch~ master;
#X obj 76 261 pow 2;
#X obj 48 283 mull~ 0 50;
#X obj 79 235 hsl 128 15 0 1 0 1 empty empty empty -2 -8 0 10 #fcfcfc #000000 #000000 10668 1;
#X obj 46 160 delwrite~ \$0-preDel 1000;
#X obj 45 103 clone -s 1 outchan 10;
#X obj 46 55 sends M;
#X obj 48 360 dac~ 1 2 3 4 5 6 7 8 9 10;
#X obj 45 131 lop~ 800;
#X obj 47 190 delread~ \$0-preDel 250;
#X obj 76 212 param VoixM reverb;
#X obj 48 306 rev3~ 100 93 2000 30;
#X connect 0 0 6 0;
#X connect 1 0 2 1;
#X connect 2 0 11 0;
#X connect 3 0 1 0;
#X connect 5 0 8 0;
#X connect 8 0 4 0;
#X connect 9 0 2 0;
#X connect 10 0 3 0;
#X connect 11 0 7 0;
#X connect 11 0 7 4;
#X connect 11 0 7 8;
#X connect 11 1 7 1;
#X connect 11 1 7 5;
#X connect 11 1 7 9;
#X connect 11 2 7 2;
#X connect 11 2 7 6;
#X connect 11 3 7 3;
#X connect 11 3 7 7;
#X restore 18 260 pd MASTER;
#N canvas 1114 222 637 513 aleaGamme 0;
#X obj 297 90 GAMMEKB \$0-xtalgam;
#X floatatom 214 60 5 0 0 0 - - - 0;
#X obj 112 93 GAMMEKB \$0-gam;
#X obj 214 35 r \$0-gam;
#N canvas 1445 151 450 300 rot 0;
#X obj 92 18 inlet;
#X obj 92 89 t f f;
#X obj 119 141 >>;
#X obj 92 211 +;
#X obj 92 142 <<;
#X obj 135 78 * -1;
#X obj 135 100 + 12;
#X obj 92 67 f;
#X obj 92 234 outlet;
#X obj 187 8 inlet;
#X obj 187 54 mod 12;
#X obj 187 30 * -1;
#X obj 92 177 mod 4096;
#X connect 0 0 7 0;
#X connect 1 0 4 0;
#X connect 1 1 2 0;
#X connect 2 0 3 1;
#X connect 3 0 8 0;
#X connect 4 0 12 0;
#X connect 5 0 6 0;
#X connect 6 0 4 1;
#X connect 7 0 1 0;
#X connect 9 0 11 0;
#X connect 10 0 5 0;
#X connect 10 0 2 1;
#X connect 11 0 10 0;
#X connect 12 0 3 0;
#X restore 214 83 pd rot;
#X obj 251 57 t b f;
#X obj 214 106 s \$0-xtalgam;
#X obj 265 36 r \$0-basse;
#X obj 35 57 s \$0-gam;
#X obj 15 215 random 12;
#X obj 84 141 bng 15 250 50 0 empty empty empty 17 7 0 10 #fcfcfc #000000 #000000;
#X obj 47 277 + 24;
#X obj 22 321 s \$0-basse;
#X obj 25 105 tgl 15 0 empty empty empty 17 7 0 10 #fcfcfc #000000 #000000 0 1;
#X obj 22 81 loadbang;
#X obj 458 90 r \$0-xtalgam;
#X msg 8 33 2709;
#X obj 459 111 s /GAMME;
#X obj 443 145 s /CHORD;
#X msg 5 256 0;
#X floatatom 513 144 8 0 0 0 - - - 0;
#X floatatom 174 38 5 0 0 0 - - - 0;
#X obj 96 272 GAMMEKB \$0-gam2;
#X obj 338 196 GAMMEKB \$0-xtalgam2;
#X floatatom 222 169 5 0 0 0 - - - 0;
#N canvas 1445 151 450 300 rot 0;
#X obj 92 18 inlet;
#X obj 92 89 t f f;
#X obj 119 141 >>;
#X obj 92 211 +;
#X obj 92 142 <<;
#X obj 135 78 * -1;
#X obj 135 100 + 12;
#X obj 92 67 f;
#X obj 92 234 outlet;
#X obj 187 8 inlet;
#X obj 187 54 mod 12;
#X obj 187 30 * -1;
#X obj 92 177 mod 4096;
#X connect 0 0 7 0;
#X connect 1 0 4 0;
#X connect 1 1 2 0;
#X connect 2 0 3 1;
#X connect 3 0 8 0;
#X connect 4 0 12 0;
#X connect 5 0 6 0;
#X connect 6 0 4 1;
#X connect 7 0 1 0;
#X connect 9 0 11 0;
#X connect 10 0 5 0;
#X connect 10 0 2 1;
#X connect 11 0 10 0;
#X connect 12 0 3 0;
#X restore 222 192 pd rot;
#X obj 259 166 t b f;
#X obj 285 145 r \$0-basse;
#X obj 222 215 s \$0-xtalgam2;
#X obj 222 144 r \$0-gam2;
#X obj 460 178 r \$0-xtalgam2;
#X obj 460 199 s /GAM2;
#X msg 84 227 0;
#X msg 115 225 5;
#X msg 146 226 7;
#X obj 84 248 f;
#X floatatom 128 363 5 0 0 0 - - - 0;
#X msg 177 224 8;
#X obj 84 198 sel 0 1 2 3, f 20;
#X msg 112 40 2741;
#X obj 112 61 s \$0-gam2;
#X msg 46 33 145;
#X obj 37 7 loadbang;
#X obj 84 177 random 3;
#X obj 15 192 bng 15 250 50 0 empty empty empty 17 7 0 10 #fcfcfc #000000 #000000;
#X obj 28 122 metro 16000;
#X obj 84 159 t b b, f 15;
#X obj 271 335 sel 0;
#X obj 271 314 random 6;
#X msg 273 408 161;
#X msg 303 409 529;
#X msg 335 409 657;
#X obj 271 380 sel 0 1 2 3 4, f 15;
#X obj 271 356 random 8;
#X msg 367 409 145;
#X obj 272 445 s \$0-gam;
#X obj 271 291 spigot;
#X obj 382 355 sel 0;
#X obj 335 261 param VoixM ExtGamme;
#X obj 335 281 tgl 16 0 empty empty empty 0 -8 0 10 #fcfcfc #000000 #000000 0 1;
#X connect 1 0 4 0;
#X connect 3 0 1 0;
#X connect 3 0 21 0;
#X connect 4 0 6 0;
#X connect 5 0 4 0;
#X connect 5 1 4 1;
#X connect 7 0 5 0;
#X connect 9 0 11 0;
#X connect 10 0 46 0;
#X connect 11 0 12 0;
#X connect 13 0 45 0;
#X connect 14 0 13 0;
#X connect 15 0 17 0;
#X connect 15 0 18 0;
#X connect 15 0 20 0;
#X connect 16 0 8 0;
#X connect 19 0 11 0;
#X connect 24 0 25 0;
#X connect 25 0 28 0;
#X connect 26 0 25 0;
#X connect 26 1 25 1;
#X connect 27 0 26 0;
#X connect 29 0 24 0;
#X connect 30 0 31 0;
#X connect 32 0 35 0;
#X connect 33 0 35 0;
#X connect 34 0 35 0;
#X connect 35 0 11 0;
#X connect 35 0 36 0;
#X connect 37 0 35 0;
#X connect 38 0 32 0;
#X connect 38 1 33 0;
#X connect 38 2 34 0;
#X connect 38 3 37 0;
#X connect 39 0 40 0;
#X connect 41 0 8 0;
#X connect 42 0 41 0;
#X connect 42 0 39 0;
#X connect 43 0 38 0;
#X connect 44 0 9 0;
#X connect 45 0 10 0;
#X connect 46 0 43 0;
#X connect 46 0 56 0;
#X connect 47 0 53 0;
#X connect 48 0 47 0;
#X connect 49 0 55 0;
#X connect 50 0 55 0;
#X connect 51 0 55 0;
#X connect 52 0 49 0;
#X connect 52 1 49 0;
#X connect 52 2 50 0;
#X connect 52 3 50 0;
#X connect 52 4 51 0;
#X connect 52 5 54 0;
#X connect 53 0 52 0;
#X connect 54 0 55 0;
#X connect 56 0 48 0;
#X connect 57 0 54 0;
#X connect 58 0 59 0;
#X connect 59 0 56 1;
#X connect 59 0 57 0;
#X restore 19 282 pd aleaGamme;
#N canvas 10 81 643 678 basse/accord 0;
#X obj 92 120 phasor~;
#X obj 92 226 lop~ 100;
#X obj 91 43 r \$0-basse;
#X obj 173 43 osc~ 3;
#X obj 91 99 mtof~;
#X obj 91 67 sig~;
#X obj 173 64 *~ 0.2;
#X msg 293 266 71.3;
#X obj 92 200 +~;
#X obj 151 227 bp~ 280 5;
#X obj 117 170 wrap~;
#X obj 225 76 osc~ 0.05;
#X obj 117 149 +~;
#X obj 225 97 *~ 0.45;
#X obj 285 76 osc~ 0.07;
#X obj 92 268 throw~ master;
#X obj 92 247 *~ 1, f 25;
#X obj 239 223 pow 2;
#X obj 88 398 gammeRound /GAMME 300;
#X obj 88 334 loadbang;
#X obj 88 473 osc~;
#X obj 88 558 throw~ master;
#X floatatom 25 464 5 0 0 0 - - - 0;
#X floatatom 45 363 5 0 0 0 - - - 0;
#X obj 229 392 gammeRound /GAMME 300;
#X obj 229 467 osc~;
#X msg 88 373 68.1;
#X obj 380 390 gammeRound /GAMME 300;
#X obj 380 465 osc~;
#X msg 229 367 62.1;
#X obj 88 534 lop~ 500;
#X floatatom 421 360 5 0 0 0 - - - 0;
#X msg 380 365 72.6;
#X obj 433 541 osc~ 6;
#X obj 380 444 mtof~;
#X obj 229 446 mtof~;
#X obj 88 452 mtof~;
#X obj 229 419 lop~ 15;
#X obj 88 425 lop~ 15;
#X obj 380 419 lop~ 15;
#X obj 433 562 *~, f 10;
#X obj 554 533 osc~ 0.17;
#X obj 491 532 osc~ 0.13;
#X obj 432 450 osc~ 0.14;
#X obj 494 450 osc~ 0.15;
#X obj 433 516 +~ 5;
#X obj 433 583 *~ 0.1;
#X obj 88 509 *~ 0.1;
#X obj 433 495 *~ 1;
#X obj 563 449 osc~ 0.13;
#X obj 200 559 pow 2;
#X obj 200 538 r VoixM-Accord;
#X obj 239 202 r VoixM-Basse;
#X obj 36 150 osc~;
#X obj 20 92 *~ 0.2;
#X obj 36 129 *~ 2;
#X obj 20 71 osc~ 2.5;
#X connect 0 0 8 0;
#X connect 0 0 12 0;
#X connect 1 0 16 0;
#X connect 2 0 5 0;
#X connect 3 0 6 0;
#X connect 4 0 0 0;
#X connect 4 0 55 0;
#X connect 5 0 4 0;
#X connect 6 0 4 0;
#X connect 8 0 1 0;
#X connect 8 0 9 0;
#X connect 9 0 16 0;
#X connect 10 0 8 0;
#X connect 11 0 13 0;
#X connect 12 0 10 0;
#X connect 13 0 12 1;
#X connect 14 0 13 0;
#X connect 16 0 15 0;
#X connect 17 0 16 1;
#X connect 18 0 22 0;
#X connect 18 0 38 0;
#X connect 19 0 26 0;
#X connect 19 0 29 0;
#X connect 19 0 32 0;
#X connect 20 0 47 0;
#X connect 23 0 18 0;
#X connect 24 0 37 0;
#X connect 25 0 47 0;
#X connect 26 0 18 0;
#X connect 27 0 39 0;
#X connect 28 0 47 0;
#X connect 29 0 24 0;
#X connect 30 0 21 0;
#X connect 31 0 27 0;
#X connect 32 0 27 0;
#X connect 33 0 40 0;
#X connect 34 0 28 0;
#X connect 35 0 25 0;
#X connect 36 0 20 0;
#X connect 37 0 35 0;
#X connect 38 0 36 0;
#X connect 39 0 34 0;
#X connect 40 0 46 0;
#X connect 41 0 40 1;
#X connect 42 0 40 1;
#X connect 43 0 48 0;
#X connect 44 0 48 0;
#X connect 45 0 33 0;
#X connect 46 0 36 0;
#X connect 46 0 34 0;
#X connect 46 0 35 0;
#X connect 47 0 30 0;
#X connect 48 0 45 0;
#X connect 49 0 48 0;
#X connect 50 0 47 1;
#X connect 51 0 50 0;
#X connect 52 0 17 0;
#X connect 53 0 8 0;
#X connect 54 0 53 0;
#X connect 55 0 53 0;
#X connect 56 0 54 0;
#X restore 19 304 pd basse/accord;
#X obj 20 333 r Analyse;
#X obj 20 354 spigot;
#X obj 20 375 print;
#X obj 69 356 tgl 15 0 empty empty empty 17 7 0 10 #fcfcfc #000000 #000000 0 1;
#X obj 421 32 declare -path AutoPreset;
#X obj 133 234 auxpd 1 Player;
#X obj 272 234 auxpd 2 Player;
#X obj 410 234 auxpd 3 Player;
#X obj 588 33 apmaster config;
#X obj 433 105 apmasterfile config config.txt;
#X obj 512 76 loadbang;
#X obj 610 80 r \$0-save;
#X obj 433 77 r \$0-reload;
#X obj 421 53 r config-reload;
#X obj 588 57 r config-save;
#X obj 433 125 cnv 15 200 30 empty empty empty 20 12 0 14 #dcdcdc #404040 0;
#X obj 533 132 bng 20 250 50 0 \$0-reload \$0-reload reload 24 10 0 20 #00fc04 #000000 #000000;
#X obj 442 132 bng 20 250 50 0 \$0-save \$0-save save 24 10 0 20 #fc0400 #000000 #000000;
#X obj 548 234 auxpd 4 Player;
#X obj 133 280 auxpd 5 Player;
#X obj 272 280 auxpd 6 Player;
#X obj 410 280 auxpd 7 Player;
#X obj 548 280 auxpd 8 Player;
#X connect 0 0 1 0;
#X connect 4 0 5 0;
#X connect 5 0 8 0;
#X connect 6 0 7 0;
#X connect 8 0 6 0;
#X connect 13 0 14 0;
#X connect 14 0 15 0;
#X connect 16 0 14 1;
#X connect 23 0 22 0;
#X connect 24 0 22 1;
#X connect 25 0 22 0;
#X connect 26 0 22 0;
#X connect 27 0 22 1;
#X restore 27 77 pd stuff;
#X obj 16 9 cnv 15 300 40 empty empty Singing_Lights_Laser 10 20 2 30 #e0e0e0 #404040 0;
#X obj 27 97 send_OSC;
#X obj 27 118 OSCremote/RemoteMaster;
