#N canvas 0 0 399 345 12;
#X obj 29 27 inlet;
#X obj 29 223 t f f, f 7;
#X obj 75 27 inlet;
#X obj 29 247 outlet;
#X obj 29 127 moses 0, f 12;
#X text 123 27 down/up speed(0-1 0-1);
#X obj 29 154 * \$1, f 7;
#X obj 110 151 * \$2, f 8;
#X obj 29 192 +;
#X obj 29 73 -;
#X obj 75 51 route down up, f 25;
#X obj 62 192 clip 0 200;
#X obj 75 86 pow 2;
#X obj 163 88 pow 2;
#X connect 0 0 9 0;
#X connect 1 0 3 0;
#X connect 1 1 9 1;
#X connect 2 0 10 0;
#X connect 4 0 6 0;
#X connect 4 1 7 0;
#X connect 6 0 8 0;
#X connect 7 0 8 0;
#X connect 8 0 1 0;
#X connect 8 0 11 0;
#X connect 9 0 4 0;
#X connect 10 0 12 0;
#X connect 10 1 13 0;
#X connect 11 0 8 1;
#X connect 12 0 6 1;
#X connect 13 0 7 1;
