#N canvas 1 108 339 301 12;
#X obj 29 27 inlet;
#X obj 29 223 t f f, f 7;
#X obj 29 247 outlet;
#X obj 29 127 moses 0, f 12;
#X obj 29 154 * \$1, f 7;
#X obj 110 151 * \$2, f 8;
#X obj 29 192 +;
#X obj 29 73 -;
#X obj 62 192 clip 0 200;
#X obj 75 86 pow 2;
#X obj 163 88 pow 2;
#X obj 75 57 r \$3_down;
#X obj 163 60 r \$3_up;
#X text 100 25 down/up speeds(0-1 0-1);
#X connect 0 0 7 0;
#X connect 1 0 2 0;
#X connect 1 1 7 1;
#X connect 3 0 4 0;
#X connect 3 1 5 0;
#X connect 4 0 6 0;
#X connect 5 0 6 0;
#X connect 6 0 1 0;
#X connect 6 0 8 0;
#X connect 7 0 3 0;
#X connect 8 0 6 1;
#X connect 9 0 4 1;
#X connect 10 0 5 1;
#X connect 11 0 9 0;
#X connect 12 0 10 0;
