#N canvas 236 374 1106 393 10;
#X msg 47 189 pd~ stop;
#X obj 228 120 loadbang;
#X msg 228 165 pd~ start -nogui \$1.pd;
#X obj 22 42 bng 15 250 50 0 empty empty GUI 17 7 0 10 #00fc04 #000000
#000000;
#X msg 113 165 pd~ start \$1.pd;
#X obj 228 141 symbol \$1;
#X obj 113 141 symbol \$1;
#X obj 315 254 outlet~;
#X obj 188 289 outlet;
#X obj 113 251 route _loaded;
#X obj 113 272 b;
#X obj 259 61 f;
#X obj 62 42 bng 15 250 50 0 empty empty noGUI 17 7 0 10 #f8fc00 #000000
#000000;
#X obj 381 164 inlet;
#X obj 259 18 r /GAMME;
#X msg 259 87 /GAMME \$1;
#X obj 354 58 f;
#X msg 354 84 /GAM2 \$1;
#X obj 113 230 pd~ -ninsig 1 -noutsig 1, f 34;
#X obj 435 165 inlet~;
#X obj 354 20 r /GAM2;
#X obj 113 314 s \$0-resend;
#X obj 267 38 r \$0-resend;
#X obj 366 39 r \$0-resend;
#X obj 440 58 f;
#X obj 452 39 r \$0-resend;
#X msg 440 84 mix-SynthMono \$1;
#X obj 564 59 f;
#X obj 576 40 r \$0-resend;
#X msg 564 85 mix-Nappe \$1;
#X obj 82 288 bng 15 250 50 0 empty empty empty 17 7 0 10 #fcfcfc #000000
#000000;
#X obj 113 293 del 10;
#X obj 440 20 r mix-SynthMono-snd;
#X obj 564 21 r mix-Nappe-snd;
#X obj 678 22 r impact_seuil-snd;
#X obj 678 62 f;
#X obj 690 43 r \$0-resend;
#X msg 678 88 ImpactSeuil \$1;
#X obj 796 62 f;
#X obj 808 43 r \$0-resend;
#X obj 796 22 r speed-justesseUp-snd;
#X obj 943 61 f;
#X obj 955 42 r \$0-resend;
#X obj 943 21 r speed-justesseDn-snd;
#X obj 796 165 f;
#X obj 808 146 r \$0-resend;
#X obj 943 164 f;
#X obj 955 145 r \$0-resend;
#X obj 796 125 r speed-forceUp-snd;
#X obj 943 124 r speed-forceDn-snd;
#X msg 796 88 speed-justesse up \$1;
#X msg 943 87 speed-justesse down \$1;
#X msg 796 191 speed-force up \$1;
#X msg 943 190 speed-force down \$1;
#X connect 0 0 18 0;
#X connect 1 0 5 0;
#X connect 2 0 18 0;
#X connect 3 0 6 0;
#X connect 4 0 18 0;
#X connect 5 0 2 0;
#X connect 6 0 4 0;
#X connect 9 0 10 0;
#X connect 10 0 31 0;
#X connect 11 0 15 0;
#X connect 12 0 5 0;
#X connect 13 0 18 0;
#X connect 14 0 11 0;
#X connect 15 0 18 0;
#X connect 16 0 17 0;
#X connect 17 0 18 0;
#X connect 18 0 9 0;
#X connect 18 0 8 0;
#X connect 18 1 7 0;
#X connect 19 0 18 0;
#X connect 20 0 16 0;
#X connect 22 0 11 0;
#X connect 23 0 16 0;
#X connect 24 0 26 0;
#X connect 25 0 24 0;
#X connect 26 0 18 0;
#X connect 27 0 29 0;
#X connect 28 0 27 0;
#X connect 29 0 18 0;
#X connect 30 0 21 0;
#X connect 31 0 21 0;
#X connect 32 0 24 0;
#X connect 33 0 27 0;
#X connect 34 0 35 0;
#X connect 35 0 37 0;
#X connect 36 0 35 0;
#X connect 37 0 18 0;
#X connect 38 0 50 0;
#X connect 39 0 38 0;
#X connect 40 0 38 0;
#X connect 41 0 51 0;
#X connect 42 0 41 0;
#X connect 43 0 41 0;
#X connect 44 0 52 0;
#X connect 45 0 44 0;
#X connect 46 0 53 0;
#X connect 47 0 46 0;
#X connect 48 0 44 0;
#X connect 49 0 46 0;
#X connect 50 0 18 0;
#X connect 51 0 18 0;
#X connect 52 0 18 0;
#X connect 53 0 18 0;
#X coords 0 -1 1 1 90 40 1 20 20;
