#N canvas 111 348 1150 697 10;
#X msg 260 85 pd~ stop;
#X obj 228 120 loadbang;
#X msg 228 165 pd~ start -nogui \$1.pd;
#X obj 22 42 bng 15 250 50 0 empty empty GUI 17 7 0 10 #00fc04 #000000 #000000;
#X msg 113 165 pd~ start \$1.pd;
#X obj 113 251 route _loaded;
#X obj 113 272 b;
#X obj 62 42 bng 15 250 50 0 empty empty noGUI 17 7 0 10 #f8fc00 #000000 #000000;
#X obj 113 314 s \$0-resend;
#X obj 82 288 bng 15 250 50 0 empty empty empty 17 7 0 10 #fcfcfc #000000 #000000;
#X obj 113 293 del 10;
#X obj 113 141 symbol \$2;
#X obj 228 141 symbol \$2;
#X obj 555 79 adc~ \$1;
#X obj 576 129 param Voix\$1 ingain;
#X obj 576 270 pow 2;
#X obj 555 311 *~ 1;
#X obj 554 380 i;
#X obj 554 430 change;
#X obj 554 332 env~ 2048;
#X obj 554 472 oscformat Voix\$1;
#X msg 554 451 list invu \$1;
#X obj 554 493 s toRemoteDirect;
#X obj 554 356 / 5;
#X obj 554 405 * 5;
#X obj 314 256 sends \$1;
#X obj 205 346 list trim;
#X obj 205 367 s Analyse;
#X obj 733 196 vxparam \$0 /GAMME;
#X obj 21 129 r \$0-topd;
#X obj 21 152 list trim;
#X obj 733 216 vxparam \$0 /GAM2;
#X obj 734 236 vxparam \$0 VoixM-SynthMono mix-SynthMono;
#X obj 734 254 vxparam \$0 VoixM-Nappe mix-Nappe;
#X obj 734 273 vxparam \$0 VoixM-thresimpact ImpactSeuil;
#X obj 733 299 vxparam \$0 VoixM-force_speedup force_speed_up;
#X obj 733 317 vxparam \$0 VoixM-force_speeddn force_speed_down;
#X obj 732 341 vxparam \$0 VoixM-juste_speedup juste_speed_up;
#X obj 732 359 vxparam \$0 VoixM-juste_speeddn juste_speed_down;
#X obj 735 26 vxparam \$0 Voix\$1-bpf1 bpf1;
#X obj 955 26 param Voix\$1 bpf1;
#X obj 955 45 param Voix\$1 bpf2;
#X obj 735 45 vxparam \$0 Voix\$1-bpf2 bpf2;
#X obj 735 65 vxparam \$0 Voix\$1-bpfecho bpfecho;
#X obj 955 64 param Voix\$1 bpfecho;
#X obj 200 422 route force justesse impact, f 50;
#X msg 200 465 list force \$1;
#X obj 200 541 oscformat Voix\$1;
#X obj 200 562 s toRemoteDirect;
#X msg 299 466 list juste \$1;
#X obj 398 444 t b b, f 9;
#X msg 447 465 1;
#X obj 398 464 del 250;
#X msg 398 485 0;
#X msg 398 505 list impact \$1;
#X obj 609 33 param Voix\$1 locut;
#X obj 554 101 hp6_butt~ 20, f 19;
#X obj 609 75 + 50;
#X obj 609 54 * 100;
#X obj 603 160 r fromRemote;
#X obj 603 181 route Voix\$1;
#X obj 603 202 route mute;
#X obj 576 243 * 1;
#X obj 603 243 t b f;
#X obj 603 223 == 0;
#X obj 379 180 pow 2;
#X obj 406 156 t b f;
#X obj 379 72 param Voix\$1 directlevel;
#X obj 444 198 r fromRemote;
#X obj 444 219 route Voix\$1;
#X obj 444 240 route directout;
#X obj 358 226 *~ 0;
#X obj 956 83 param Voix\$1 smooth;
#X obj 955 101 param Voix\$1 wavform;
#X obj 735 84 vxparam \$0 Voix\$1-smooth smooth;
#X obj 734 103 vxparam \$0 Voix\$1-wavform wavform;
#X obj 113 42 bng 15 250 50 0 empty empty stop 17 7 0 10 #fc0400 #000000 #000000;
#X obj 200 444 * 100;
#X obj 299 444 * 100;
#X obj 379 155 * 0;
#X obj 576 291 * 8;
#X obj 379 199 * 8;
#X obj 734 128 vxparam \$0 Voix\$1-lfoamp lfoamp;
#X obj 955 126 param Voix\$1 lfoamp;
#X obj 734 148 vxparam \$0 Voix\$1-portamento portamento;
#X obj 979 149 param Voix\$1 portamento;
#X obj 113 230 pd~ -ninsig 1 -noutsig 1 -fifo 20, f 34;
#X obj 205 278 route impact;
#X msg 205 301 impact 1 \, impact 0;
#X obj 205 325 list prepend mic \$1;
#X obj 675 468 list prepend \$1;
#X obj 675 491 s SLL-vus;
#X obj 355 543 list prepend \$1;
#X obj 355 566 s SLL-justesse;
#X obj 406 95 param Voix\$1 directout;
#X connect 0 0 86 0;
#X connect 1 0 12 0;
#X connect 2 0 86 0;
#X connect 3 0 11 0;
#X connect 4 0 86 0;
#X connect 5 0 6 0;
#X connect 5 1 87 0;
#X connect 6 0 10 0;
#X connect 7 0 12 0;
#X connect 9 0 8 0;
#X connect 10 0 8 0;
#X connect 11 0 4 0;
#X connect 12 0 2 0;
#X connect 13 0 56 0;
#X connect 14 0 62 0;
#X connect 15 0 80 0;
#X connect 16 0 19 0;
#X connect 16 0 86 0;
#X connect 17 0 24 0;
#X connect 18 0 21 0;
#X connect 18 0 90 0;
#X connect 19 0 23 0;
#X connect 20 0 22 0;
#X connect 21 0 20 0;
#X connect 23 0 17 0;
#X connect 24 0 18 0;
#X connect 26 0 27 0;
#X connect 29 0 30 0;
#X connect 30 0 86 0;
#X connect 45 0 77 0;
#X connect 45 1 78 0;
#X connect 45 1 92 0;
#X connect 45 2 50 0;
#X connect 46 0 47 0;
#X connect 47 0 48 0;
#X connect 49 0 47 0;
#X connect 50 0 52 0;
#X connect 50 1 51 0;
#X connect 51 0 54 0;
#X connect 52 0 53 0;
#X connect 53 0 54 0;
#X connect 54 0 47 0;
#X connect 55 0 58 0;
#X connect 56 0 16 0;
#X connect 56 0 71 0;
#X connect 57 0 56 1;
#X connect 58 0 57 0;
#X connect 59 0 60 0;
#X connect 60 0 61 0;
#X connect 61 0 64 0;
#X connect 62 0 15 0;
#X connect 63 0 62 0;
#X connect 63 1 62 1;
#X connect 64 0 63 0;
#X connect 65 0 81 0;
#X connect 66 0 79 0;
#X connect 66 1 79 1;
#X connect 67 0 79 0;
#X connect 68 0 69 0;
#X connect 69 0 70 0;
#X connect 71 0 25 0;
#X connect 76 0 0 0;
#X connect 77 0 46 0;
#X connect 78 0 49 0;
#X connect 79 0 65 0;
#X connect 80 0 16 1;
#X connect 81 0 71 1;
#X connect 86 0 5 0;
#X connect 86 0 45 0;
#X connect 86 1 25 0;
#X connect 87 0 88 0;
#X connect 87 1 89 0;
#X connect 88 0 89 0;
#X connect 89 0 26 0;
#X connect 90 0 91 0;
#X connect 92 0 93 0;
#X connect 94 0 66 0;
#X coords 0 -1 1 1 135 40 1 20 20;
