#N canvas 499 454 450 300 12;
#X obj 75 18 inlet;
#X obj 75 42 - \$1;
#X obj 75 66 / 1;
#X obj 131 22 loadbang;
#X obj 131 46 f \$2;
#X obj 131 70 - \$1;
#X obj 75 158 * 1;
#X obj 130 100 loadbang;
#X obj 130 124 f \$4;
#X obj 130 148 - \$3;
#X obj 75 182 + \$3;
#X obj 75 206 outlet;
#X connect 0 0 1 0;
#X connect 1 0 2 0;
#X connect 2 0 6 0;
#X connect 3 0 4 0;
#X connect 4 0 5 0;
#X connect 5 0 2 1;
#X connect 6 0 10 0;
#X connect 7 0 8 0;
#X connect 8 0 9 0;
#X connect 9 0 6 1;
#X connect 10 0 11 0;
