#N canvas 784 237 581 436 10;
#X obj 104 117 hradio 15 1 0 4 empty empty empty 0 -8 0 10 -262144
-1 -1 2;
#X msg 104 169 set \$1;
#X obj 104 143 + 1;
#X obj 104 190 adc~ \$1;
#X obj 104 262 outlet~;
#X obj 104 226 *~ 1;
#X obj 214 215 - 88;
#X obj 214 236 i;
#X obj 214 257 change;
#X obj 214 185 env~ 2048;
#X obj 214 278 s mic\$1_vu;
#X obj 158 184 pow 2;
#X obj 158 163 r mic\$1_gain-snd;
#X msg 253 215 0 \, 70;
#X obj 333 139 > 70;
#X obj 333 160 change;
#X obj 333 181 sel 0 1;
#X obj 333 231 del 100;
#X msg 342 209 stop;
#X msg 333 252 0;
#X msg 378 250 1;
#X obj 333 273 change;
#X obj 333 352 s mic\$1-thres-rcv;
#X obj 333 294 sel 0 1;
#X obj 183 331 tgl 15 0 empty empty empty 17 7 0 10 -262144 -1 -1 0
1;
#X msg 333 321 color 5 5 0;
#X msg 410 322 color 13 13 0;
#X obj 52 191 inlet~;
#X obj 42 44 loadbang;
#X obj 42 65 f \$1;
#X msg 42 111 set \$1;
#X obj 42 88 - 1;
#X obj 75 65 bng 15 250 50 0 empty empty empty 17 7 0 10 -262144 -1
-1;
#X connect 0 0 2 0;
#X connect 1 0 3 0;
#X connect 2 0 1 0;
#X connect 3 0 5 0;
#X connect 5 0 4 0;
#X connect 5 0 9 0;
#X connect 6 0 7 0;
#X connect 7 0 8 0;
#X connect 8 0 10 0;
#X connect 9 0 6 0;
#X connect 9 0 14 0;
#X connect 11 0 5 1;
#X connect 12 0 11 0;
#X connect 13 0 6 0;
#X connect 14 0 15 0;
#X connect 15 0 16 0;
#X connect 16 0 17 0;
#X connect 16 1 18 0;
#X connect 16 1 20 0;
#X connect 17 0 19 0;
#X connect 18 0 17 0;
#X connect 19 0 21 0;
#X connect 20 0 21 0;
#X connect 21 0 23 0;
#X connect 23 0 25 0;
#X connect 23 1 26 0;
#X connect 25 0 22 0;
#X connect 26 0 22 0;
#X connect 27 0 5 0;
#X connect 28 0 29 0;
#X connect 29 0 31 0;
#X connect 30 0 0 0;
#X connect 31 0 30 0;
#X connect 32 0 29 0;
#X coords 0 -1 1 1 68 36 1 100 100;
