#N canvas 783 422 1003 851 10;
#X declare -path ../absGAMME;
#X declare -path iemlib -lib iemlib -path moonlib;
#X obj 27 24 r \$2;
#X obj 191 14 declare -path ../absGAMME;
#X obj 55 292 gammeRound /GAMME 300;
#X obj 27 66 route \$1;
#X obj 244 97 b;
#X obj 548 427 b;
#X obj 317 72 route -1;
#X obj 244 71 route \$1 -1;
#X msg 337 122 \$3;
#X floatatom 337 143 5 0 0 0 - - - 0;
#X obj 27 45 route play gamme transpose stop stopkey vibrato, f 73
;
#X obj 389 289 f;
#X obj 373 392 mtof;
#X obj 418 510 *~ 0.3;
#X obj 375 612 *~;
#X obj 548 484 vline~;
#X obj 373 438 *~;
#X obj 417 439 *~;
#X obj 442 283 noise~;
#X obj 443 374 +~ 1;
#X msg 460 163 0 1 1;
#X obj 375 633 hip~ 20;
#X obj 375 654 lop~ 700;
#X obj 547 282 noise~;
#X obj 548 373 +~ 1;
#X obj 417 418 * 6;
#X obj 374 794 outlet~;
#X obj 316 463 osc~;
#X obj 317 441 *~;
#X obj 316 484 *~ 0.5;
#X obj 317 419 * 1;
#X obj 28 351 pipe 300;
#X obj 430 215 declare -path iemlib -lib iemlib -path moonlib;
#X obj 28 261 t b f;
#X obj 28 315 f;
#X msg 610 418 0 300;
#X obj 678 267 noise~;
#X obj 477 509 *~;
#X msg 661 411 0.5 500;
#X obj 373 416 * 2;
#X obj 674 349 +~ 1;
#X obj 443 314 lp4_butt~ 4 100;
#X obj 548 313 lp4_butt~ 3 100;
#X obj 447 636 bob~, f 12;
#X obj 566 603 sig~ 3.5;
#X obj 724 539 vline~;
#X obj 493 606 min~ 18000;
#X obj 598 34 r noteplayer-switch;
#X obj 374 478 ssaw~;
#X obj 418 489 ssaw~;
#X obj 478 532 ssaw~;
#X obj 724 560 mtof~;
#X msg 724 512 130 100 \, 70 7000 1000;
#X obj 447 680 lop~ 5000;
#X obj 547 527 *~;
#X obj 447 659 *~ 1;
#X obj 679 294 lp4_butt~ 2 100;
#X obj 802 383 osc~;
#X obj 802 404 *~;
#X obj 872 292 noise~;
#X obj 873 323 lp4_butt~ 0.2 100;
#X obj 598 83 block~ 64 1 1;
#X obj 374 766 +~;
#X obj 443 353 *~ 0.5;
#X obj 548 352 *~ 0.5;
#X obj 674 328 *~ 0.5;
#X obj 801 451 +~ 1;
#X obj 802 362 +~ 3;
#X obj 874 355 *~ 5000;
#X obj 802 341 *~ 400;
#X text 46 86 note;
#X msg 651 630 0 300 \, 1 500 300 \, 0 7000 1300;
#X obj 227 153 b;
#X msg 193 172 1;
#X msg 227 172 0;
#X obj 193 193 change;
#X obj 193 214 sel 1 0;
#X msg 548 457 0 300 \, 1 500 300;
#X msg 673 458 0 7000 1300;
#X obj 27 119 t f f;
#X obj 123 146 sel 0;
#X connect 0 0 10 0;
#X connect 2 0 34 1;
#X connect 3 0 79 0;
#X connect 3 1 72 0;
#X connect 5 0 77 0;
#X connect 5 0 52 0;
#X connect 6 0 4 0;
#X connect 7 0 4 0;
#X connect 7 1 4 0;
#X connect 8 0 9 0;
#X connect 8 0 6 1;
#X connect 10 0 3 0;
#X connect 10 3 7 0;
#X connect 10 4 6 0;
#X connect 10 5 11 0;
#X connect 12 0 25 0;
#X connect 12 0 30 0;
#X connect 12 0 39 0;
#X connect 13 0 14 0;
#X connect 14 0 21 0;
#X connect 14 0 43 0;
#X connect 15 0 54 0;
#X connect 15 0 54 1;
#X connect 16 0 48 0;
#X connect 17 0 49 0;
#X connect 18 0 41 0;
#X connect 19 0 16 1;
#X connect 20 0 3 0;
#X connect 21 0 22 0;
#X connect 22 0 62 0;
#X connect 23 0 42 0;
#X connect 24 0 28 1;
#X connect 24 0 37 1;
#X connect 25 0 17 0;
#X connect 27 0 29 0;
#X connect 28 0 27 0;
#X connect 29 0 14 0;
#X connect 30 0 28 0;
#X connect 33 0 34 0;
#X connect 33 1 2 0;
#X connect 34 0 31 0;
#X connect 35 0 15 0;
#X connect 36 0 56 0;
#X connect 37 0 50 0;
#X connect 38 0 15 0;
#X connect 39 0 16 0;
#X connect 39 0 37 0;
#X connect 40 0 17 1;
#X connect 41 0 63 0;
#X connect 42 0 64 0;
#X connect 43 0 55 0;
#X connect 44 0 43 2;
#X connect 45 0 51 0;
#X connect 46 0 43 1;
#X connect 47 0 61 0;
#X connect 48 0 14 0;
#X connect 49 0 13 0;
#X connect 50 0 14 0;
#X connect 51 0 46 0;
#X connect 52 0 45 0;
#X connect 53 0 62 0;
#X connect 54 0 14 1;
#X connect 55 0 53 0;
#X connect 56 0 65 0;
#X connect 56 0 69 0;
#X connect 57 0 58 0;
#X connect 58 0 66 0;
#X connect 59 0 60 0;
#X connect 60 0 68 0;
#X connect 62 0 26 0;
#X connect 63 0 19 0;
#X connect 64 0 24 0;
#X connect 65 0 40 0;
#X connect 66 0 17 1;
#X connect 66 0 16 1;
#X connect 66 0 37 1;
#X connect 66 0 28 1;
#X connect 67 0 57 0;
#X connect 68 0 58 1;
#X connect 69 0 67 0;
#X connect 72 0 74 0;
#X connect 73 0 75 0;
#X connect 74 0 75 0;
#X connect 75 0 76 0;
#X connect 76 0 5 0;
#X connect 76 1 78 0;
#X connect 77 0 15 0;
#X connect 78 0 15 0;
#X connect 79 0 12 0;
#X connect 79 1 80 0;
#X connect 80 0 74 0;
#X connect 80 1 73 0;
