#N canvas 1224 184 328 452 12;
#X obj 41 266 *~;
#X obj 83 132 pow 2;
#X msg 83 153 \$1 20;
#X obj 83 174 line~;
#X obj 40 208 *~;
#X obj 86 107 hsl 128 15 0 1 0 1 empty empty empty -2 -8 0 10 #fcfcfc #000000 #000000 4978 1;
#X obj 84 245 limiter~;
#X obj 41 245 z~ 64;
#X obj 83 76 r mix-Master-snd;
#X obj 169 349 - 88;
#X obj 169 370 i;
#X obj 169 391 change;
#X obj 169 327 env~ 2048;
#X obj 39 15 catch~ out\$1;
#X obj 169 412 s out\$1_vu;
#X obj 40 409 dac~ \$1;
#X obj 99 409 outlet~;
#X obj 41 293 hip~ 20;
#X connect 0 0 17 0;
#X connect 1 0 2 0;
#X connect 2 0 3 0;
#X connect 3 0 4 1;
#X connect 4 0 6 0;
#X connect 4 0 7 0;
#X connect 5 0 1 0;
#X connect 6 0 0 1;
#X connect 7 0 0 0;
#X connect 8 0 5 0;
#X connect 9 0 10 0;
#X connect 10 0 11 0;
#X connect 11 0 14 0;
#X connect 12 0 9 0;
#X connect 13 0 4 0;
#X connect 17 0 15 0;
#X connect 17 0 16 0;
#X connect 17 0 12 0;
