#N canvas 1 81 450 300 12;
#X obj 92 107 route \$2;
#X obj 92 191 list prepend \$2;
#X obj 92 60 r fromRemote;
#X obj 92 83 route \$1;
#X obj 92 131 apf config \$1-\$2 \$0-no 2;
#X obj 92 217 oscformat \$1;
#X obj 92 244 s toRemoteDirect;
#X obj 247 207 s \$1-\$2;
#X obj 247 234 r \$1-\$2;
#X obj 247 258 outlet;
#X obj 52 131 t a;
#X obj 92 161 f;
#X obj 203 61 r OSCrefresh;
#X obj 203 86 b;
#X connect 0 0 4 0;
#X connect 0 0 7 0;
#X connect 1 0 5 0;
#X connect 2 0 3 0;
#X connect 3 0 0 0;
#X connect 4 0 7 0;
#X connect 4 0 10 0;
#X connect 4 0 11 0;
#X connect 5 0 6 0;
#X connect 8 0 9 0;
#X connect 10 0 4 0;
#X connect 11 0 1 0;
#X connect 12 0 13 0;
#X connect 13 0 11 0;
