#N canvas 729 446 550 313 10;
#X declare -path absGAMME -path ../absGAMME -path ../RecallSong;
#N canvas 202 604 457 279 MicrophonePitch 0;
#X floatatom 19 110 5 0 0 3 pitch - - 0;
#X floatatom 352 117 5 0 0 3 env - - 0;
#X obj 230 139 > 70;
#X obj 65 108 sel -1500;
#X msg 65 134 0;
#X obj 65 160 *, f 28;
#X obj 65 184 s Player\$1-pitch;
#X obj 296 94 s Player\$1-env;
#X obj 251 116 r MicSeuil;
#X obj 65 39 adc~;
#X obj 65 71 sigmund~ -hop 4096 -npts 4096 pitch env;
#X connect 2 0 5 1;
#X connect 3 0 4 0;
#X connect 3 1 5 0;
#X connect 4 0 5 0;
#X connect 5 0 6 0;
#X connect 8 0 2 1;
#X connect 9 0 10 0;
#X connect 10 0 3 0;
#X connect 10 1 2 0;
#X connect 10 1 7 0;
#X restore 51 36 pd MicrophonePitch;
#N canvas 960 308 577 629 SynthMono 0;
#X obj 127 335 phasor~;
#X obj 99 206 t f f, f 18;
#X obj 99 231 sel 0;
#X obj 126 282 lop~ 2;
#X obj 127 356 *~;
#X obj 204 259 sel 0;
#X msg 204 280 0 300;
#X msg 245 281 1 20;
#X obj 204 301 line~;
#X obj 204 322 *~;
#X obj 125 590 throw~ master;
#X obj 126 452 *~ 1, f 16;
#X obj 99 165 gammeRound /GAM2 300;
#X obj 146 480 delwrite~ \$0-dm 1000;
#X obj 127 310 mtof~;
#X obj 56 413 bp~ 700 10;
#X obj 127 411 bp~ 1600 10;
#X obj 376 84 + 0.5;
#X obj 376 105 i;
#X obj 376 126 change;
#X obj 376 168 line~;
#X obj 305 226 *~, f 11;
#X obj 126 257 + 12;
#X obj 376 189 *~ 0.3;
#X msg 376 147 0.1 \, 1 2000;
#X obj 272 66 +~ 5;
#X obj 272 45 *~ 1;
#X obj 383 19 osc~ 0.13;
#X obj 273 90 osc~ 5;
#X obj 239 19 osc~ 0.113;
#X obj 308 19 osc~ 0.1273;
#X obj 99 119 r Player\$1-pitch;
#X obj 145 504 delread~ \$0-dm 800;
#X obj 145 529 bp~ 1300 10;
#X obj 145 553 *~ 0.8;
#X obj 220 427 r mix-SynthMono;
#X obj 350 282 r SynthMonoParams;
#X obj 350 303 route \$1 -1;
#X obj 350 324 t a;
#X obj 350 345 route bpf1 bpf2 bpfecho;
#X connect 0 0 4 0;
#X connect 1 0 2 0;
#X connect 1 1 5 0;
#X connect 2 1 22 0;
#X connect 3 0 14 0;
#X connect 4 0 16 0;
#X connect 4 0 15 0;
#X connect 5 0 6 0;
#X connect 5 1 7 0;
#X connect 6 0 8 0;
#X connect 7 0 8 0;
#X connect 8 0 9 0;
#X connect 8 0 9 1;
#X connect 9 0 4 1;
#X connect 11 0 10 0;
#X connect 11 0 13 0;
#X connect 12 0 1 0;
#X connect 12 0 17 0;
#X connect 14 0 0 0;
#X connect 15 0 11 0;
#X connect 16 0 11 0;
#X connect 17 0 18 0;
#X connect 18 0 19 0;
#X connect 19 0 24 0;
#X connect 20 0 23 0;
#X connect 21 0 14 0;
#X connect 22 0 3 0;
#X connect 23 0 21 1;
#X connect 24 0 20 0;
#X connect 25 0 28 0;
#X connect 26 0 25 0;
#X connect 27 0 26 0;
#X connect 28 0 21 0;
#X connect 29 0 26 0;
#X connect 30 0 26 0;
#X connect 31 0 12 0;
#X connect 32 0 33 0;
#X connect 33 0 34 0;
#X connect 34 0 10 0;
#X connect 35 0 11 1;
#X connect 36 0 37 0;
#X connect 37 0 38 0;
#X connect 37 1 38 0;
#X connect 38 0 39 0;
#X connect 39 0 15 1;
#X connect 39 1 16 1;
#X connect 39 2 33 1;
#X restore 52 68 pd SynthMono;
#N canvas 258 126 538 625 Nappe 0;
#X obj 61 57 sel 0;
#X obj 88 78 - 12;
#X obj 115 132 gammeRound /GAMME 300;
#X obj 88 198 i;
#X obj 88 176 + 0.5;
#X obj 61 225 change;
#X msg 61 81 0;
#X obj 88 102 t b f;
#X obj 88 152 f, f 5;
#X msg 116 56 12;
#X obj 61 34 r Player\$1-pitch;
#X obj 61 303 list prepend;
#X obj 114 252 + 1;
#X msg 61 324 play \$1 \$2;
#X obj 61 247 t f b;
#X obj 88 269 f;
#X obj 114 270 mod 16;
#X obj 61 348 s Player\$1-nappe;
#X obj 61 385 clone nappeVoice 16 Player\$1-nappe;
#X obj 61 419 *~;
#X obj 98 434 pow 2;
#X obj 101 413 hsl 128 15 0 1 0 1 empty empty empty -2 -8 0 10 #fcfcfc
#000000 #000000 2234 1;
#X obj 61 593 throw~ master;
#X obj 95 565 rev1~ 92, f 58;
#X obj 267 523 loadbang;
#X msg 267 544 92;
#X obj 95 544 *~, f 21;
#X obj 218 523 pow 2;
#X obj 221 502 hsl 128 15 0 2 0 1 empty empty empty -2 -8 0 10 #fcfcfc
#000000 #000000 8700 1;
#X obj 94 520 lop~ 8000;
#X obj 227 363 r mix-Nappe;
#X obj 243 478 r nappeRev;
#X obj 286 84 loadbang;
#X obj 286 105 tgl 15 0 empty empty empty 17 7 0 10 #fcfcfc #000000
#000000 0 1;
#X obj 286 126 metro 20;
#X obj 286 147 s LFOrnd-bang;
#X obj 86 454 delwrite~ \$0-preDel 1000;
#X obj 95 481 delread~ \$0-preDel 500;
#X connect 0 0 6 0;
#X connect 0 1 1 0;
#X connect 1 0 7 0;
#X connect 2 0 8 1;
#X connect 3 0 5 0;
#X connect 4 0 3 0;
#X connect 5 0 14 0;
#X connect 6 0 5 0;
#X connect 7 0 8 0;
#X connect 7 1 2 0;
#X connect 8 0 4 0;
#X connect 9 0 1 1;
#X connect 10 0 0 0;
#X connect 11 0 13 0;
#X connect 12 0 16 0;
#X connect 13 0 17 0;
#X connect 14 0 11 0;
#X connect 14 1 15 0;
#X connect 15 0 12 0;
#X connect 15 0 11 1;
#X connect 16 0 15 1;
#X connect 18 0 19 0;
#X connect 19 0 22 0;
#X connect 19 0 36 0;
#X connect 20 0 19 1;
#X connect 21 0 20 0;
#X connect 23 0 22 0;
#X connect 24 0 25 0;
#X connect 25 0 23 1;
#X connect 26 0 23 0;
#X connect 27 0 26 1;
#X connect 28 0 27 0;
#X connect 29 0 26 0;
#X connect 30 0 21 0;
#X connect 31 0 28 0;
#X connect 32 0 33 0;
#X connect 33 0 34 0;
#X connect 34 0 35 0;
#X connect 37 0 29 0;
#X restore 54 110 pd Nappe;
#X obj 54 142 catch~ master;
#X obj 54 163 dac~;
#X obj 51 9 declare -path absGAMME -path ../absGAMME -path ../RecallSong
;
#X obj 186 65 loadbang;
#X msg 186 86 \; pd dsp 1;
#X msg 262 94 _loaded;
#X obj 262 115 stdout;
#N canvas 118 158 694 520 analyse 0;
#X obj 140 105 gammeRound /GAM2 300;
#X obj 113 82 t f f;
#X obj 78 152 -;
#X obj 78 178 abs;
#X obj 67 455 hsl 128 15 0 100 0 0 empty empty empty -2 -8 0 10 #fcfcfc
#000000 #000000 0 1;
#X obj 113 48 r Player\$1-pitch;
#X obj 78 198 - 0.2;
#X obj 51 108 f;
#X obj 51 77 metro 50;
#X obj 51 32 loadbang;
#X obj 51 53 tgl 15 0 empty empty empty 17 7 0 10 #fcfcfc #000000 #000000
0 1;
#X obj 51 129 sel 0;
#X msg 51 265 0;
#X obj 51 286 f;
#X obj 78 218 * -200;
#X obj 78 241 + 120;
#X obj 78 267 clip 0 150;
#X obj 51 386 clip 0 100;
#X obj 51 498 stdout;
#X obj 51 407 i;
#X obj 51 428 change;
#X msg 51 476 justesse \$1;
#X obj 296 183 r Player\$1-env;
#X obj 312 409 hsl 128 15 0 100 0 0 empty empty empty -2 -8 0 10 #fcfcfc
#000000 #000000 0 1;
#X obj 296 340 clip 0 100;
#X obj 296 452 stdout;
#X obj 296 361 i;
#X obj 296 382 change;
#X msg 296 430 force \$1;
#X obj 296 204 - 70;
#X obj 296 227 * 8;
#X obj 296 273 clip 0 130;
#X obj 551 218 r Player\$1-env;
#X obj 551 239 t f f;
#X obj 551 271 -;
#X obj 551 313 change;
#X obj 551 334 sel 1;
#X obj 551 292 > 26, f 8;
#X obj 596 270 r ImpactSeuil;
#X obj 551 377 stdout;
#X msg 551 355 impact;
#X obj 438 131 hsl 128 15 0 100 0 0 empty empty empty -2 -8 0 10 #fcfcfc
#000000 #000000 0 1;
#X obj 420 175 f;
#X obj 412 123 tgl 15 0 empty empty empty 17 7 0 10 #fcfcfc #000000
#000000 0 1;
#X obj 296 250 spigot 1;
#X obj 387 151 == 0;
#X obj 420 154 metro 92;
#X obj 296 295 asymFilter 0.4 0.2;
#X obj 296 316 asymFilter 0.4 0.2;
#X obj 401 272 r speed-force;
#X obj 168 316 r speed-justesse;
#X obj 51 340 asymFilter 0.04 0.04;
#X obj 51 361 asymFilter 0.04 0.04;
#X obj 337 69 hsl 128 15 0 150 0 0 empty empty empty -2 -8 0 10 #fcfcfc
#000000 #000000 0 1;
#X obj 319 113 f;
#X obj 311 61 tgl 15 0 empty empty empty 17 7 0 10 #fcfcfc #000000
#000000 0 1;
#X obj 51 311 spigot 1;
#X obj 286 89 == 0;
#X obj 319 92 metro 92;
#X connect 0 0 2 1;
#X connect 1 0 7 1;
#X connect 1 1 0 0;
#X connect 2 0 3 0;
#X connect 3 0 6 0;
#X connect 5 0 1 0;
#X connect 6 0 14 0;
#X connect 7 0 11 0;
#X connect 8 0 7 0;
#X connect 9 0 10 0;
#X connect 10 0 8 0;
#X connect 11 0 12 0;
#X connect 11 1 2 0;
#X connect 12 0 13 0;
#X connect 13 0 56 0;
#X connect 14 0 15 0;
#X connect 15 0 16 0;
#X connect 16 0 13 0;
#X connect 17 0 19 0;
#X connect 19 0 20 0;
#X connect 20 0 4 0;
#X connect 20 0 21 0;
#X connect 21 0 18 0;
#X connect 22 0 29 0;
#X connect 24 0 26 0;
#X connect 26 0 27 0;
#X connect 27 0 23 0;
#X connect 27 0 28 0;
#X connect 28 0 25 0;
#X connect 29 0 30 0;
#X connect 30 0 44 0;
#X connect 31 0 47 0;
#X connect 32 0 33 0;
#X connect 33 0 34 1;
#X connect 33 1 34 0;
#X connect 34 0 37 0;
#X connect 35 0 36 0;
#X connect 36 0 40 0;
#X connect 37 0 35 0;
#X connect 38 0 37 1;
#X connect 40 0 39 0;
#X connect 41 0 42 1;
#X connect 42 0 31 0;
#X connect 43 0 45 0;
#X connect 43 0 46 0;
#X connect 44 0 31 0;
#X connect 45 0 44 1;
#X connect 46 0 42 0;
#X connect 47 0 48 0;
#X connect 48 0 24 0;
#X connect 49 0 47 1;
#X connect 49 0 48 1;
#X connect 50 0 51 1;
#X connect 50 0 52 1;
#X connect 51 0 52 0;
#X connect 52 0 17 0;
#X connect 53 0 54 1;
#X connect 54 0 51 0;
#X connect 55 0 57 0;
#X connect 55 0 58 0;
#X connect 56 0 51 0;
#X connect 57 0 56 1;
#X connect 58 0 54 0;
#X restore 53 221 pd analyse;
#X connect 3 0 4 0;
#X connect 6 0 7 0;
#X connect 6 0 8 0;
#X connect 8 0 9 0;
