#N canvas 312 47 765 406 10;
#X obj 599 67 bng 15 250 50 0 empty empty empty 17 7 0 10 #fcfcfc #000000 #000000;
#X obj 25 44 list;
#X obj 25 87 oscformat -f f;
#X obj 599 87 oscformat /connected;
#X obj 139 58 r PLAY;
#X obj 139 87 oscformat -f f playing;
#X msg 25 65 set \$1\$2 \$3 \, \$4;
#X obj 284 63 r VoixM-nb_chante;
#X obj 437 64 r VoixM-nb_juste;
#X obj 284 86 oscformat -f f nb_chante;
#X obj 437 87 oscformat -f f nb_juste;
#X obj 622 64 r \$0-connected;
#X obj 25 16 r Analyse;
#X obj 140 174 inlet on;
#X obj 25 278 netsend -b -u;
#X obj 25 177 list prepend send;
#X obj 25 201 list trim;
#X obj 25 302 tgl 15 0 empty empty connected 17 7 0 10 #fcfcfc #000000 #000000 0 1;
#X msg 159 247 disconnect;
#X msg 140 221 connect localhost 8000;
#X obj 25 322 sel 1;
#X obj 25 343 del 500;
#X obj 25 366 s \$0-connected;
#X obj 109 341 bng 18 250 50 0 empty empty empty 0 -9 0 10 #fcfcfc #000000 #000000;
#X obj 140 198 sel 1 0;
#X obj 25 149 t a;
#X connect 0 0 3 0;
#X connect 1 0 6 0;
#X connect 2 0 25 0;
#X connect 3 0 25 0;
#X connect 4 0 5 0;
#X connect 5 0 25 0;
#X connect 6 0 2 0;
#X connect 7 0 9 0;
#X connect 8 0 10 0;
#X connect 9 0 25 0;
#X connect 10 0 25 0;
#X connect 11 0 3 0;
#X connect 12 0 1 0;
#X connect 13 0 24 0;
#X connect 14 0 17 0;
#X connect 15 0 16 0;
#X connect 16 0 14 0;
#X connect 17 0 20 0;
#X connect 18 0 14 0;
#X connect 19 0 14 0;
#X connect 20 0 21 0;
#X connect 21 0 22 0;
#X connect 23 0 22 0;
#X connect 24 0 19 0;
#X connect 24 1 18 0;
#X connect 25 0 15 0;
