#N canvas 247 219 450 300 12;
#X obj 173 42 inlet;
#X obj 173 66 route level;
#X msg 173 120 level \$1;
#X obj 173 144 outlet;
#X obj 173 96 apf config send_\$2_\$1 \$0-no 2;
#X obj 364 33 inlet~;
#X connect 0 0 1 0;
#X connect 1 0 4 0;
#X connect 2 0 3 0;
#X connect 4 0 2 0;
