#N canvas 400 62 1030 719 10;
#X obj 136 490 inlet on;
#X obj 21 594 netsend -b -u;
#X obj 21 493 list prepend send;
#X obj 21 517 list trim;
#X obj 21 618 tgl 15 0 empty empty connected 17 7 0 10 #fcfcfc #000000 #000000 0 1;
#X msg 155 563 disconnect;
#X msg 136 537 connect localhost 8000;
#X obj 21 638 sel 1;
#X obj 21 659 del 500;
#X obj 21 682 s \$0-connected;
#X obj 105 657 bng 18 250 50 0 empty empty empty 0 -9 0 10 #fcfcfc #000000 #000000;
#X obj 136 514 sel 1 0;
#X obj 21 17 r mic1-justesse-snd;
#X obj 144 17 r mic1-force-snd;
#X obj 284 301 r mic3-force-snd;
#X obj 161 302 r mic3-justesse-snd;
#X obj 219 159 r mic2-force-snd;
#X obj 96 159 r mic2-justesse-snd;
#X obj 252 17 r mic1-impact-snd;
#X obj 327 157 r mic2-impact-snd;
#X obj 392 300 r mic3-impact-snd;
#X obj 144 56 / 100;
#X obj 219 188 / 100;
#X obj 284 346 / 100;
#X obj 21 80 / 100;
#X obj 96 223 / 100;
#X obj 161 376 / 100;
#X msg 252 38 0;
#X msg 327 178 0;
#X msg 392 322 0;
#X obj 96 244 oscformat -f f /composition/layers/5/clips/1/dashboard/link1, f 82;
#X obj 21 104 oscformat -f f /composition/layers/6/clips/1/dashboard/link1, f 76;
#X obj 219 222 oscformat -f f /composition/layers/2/clips/1/dashboard/link1, f 73;
#X obj 144 81 oscformat -f f /composition/layers/3/clips/1/dashboard/link1, f 81;
#X obj 161 398 oscformat -f f /composition/layers/4/clips/1/dashboard/link1, f 73;
#X obj 284 375 oscformat -f f /composition/layers/1/clips/1/dashboard/link1, f 79;
#X obj 252 59 oscformat -f i /composition/layers/9/clips/1/video/effects/transform/anchory/behaviour/playdirection, f 110;
#X obj 327 199 oscformat -f i /composition/layers/8/clips/1/video/effects/transform/anchory/behaviour/playdirection, f 111;
#X obj 392 345 oscformat -f i /composition/layers/7/clips/1/video/effects/transform/anchory/behaviour/playdirection, f 101;
#X obj 31 131 oscformat -f f /composition/layers/12/clips/1/dashboard/link1, f 74;
#X obj 113 266 oscformat -f f /composition/layers/11/clips/1/dashboard/link1, f 79;
#X obj 177 422 oscformat -f f /composition/layers/10/clips/1/dashboard/link1, f 82;
#X obj 21 467 t a;
#X obj 338 446 r PLAY;
#X obj 338 469 tgl 18 0 empty empty empty 0 -9 0 10 #fcfcfc #000000 #000000 0 1;
#X obj 338 492 sel 1 0, f 17;
#X obj 338 559 oscformat -f i /composition/columns/1/connect, f 47;
#X msg 338 538 1;
#X msg 387 515 1;
#X obj 387 536 oscformat -f i /composition/columns/2/connect, f 47;
#X obj 338 582 t a;
#X connect 0 0 11 0;
#X connect 1 0 4 0;
#X connect 2 0 3 0;
#X connect 3 0 1 0;
#X connect 4 0 7 0;
#X connect 5 0 1 0;
#X connect 6 0 1 0;
#X connect 7 0 8 0;
#X connect 8 0 9 0;
#X connect 10 0 9 0;
#X connect 11 0 6 0;
#X connect 11 1 5 0;
#X connect 12 0 24 0;
#X connect 13 0 21 0;
#X connect 14 0 23 0;
#X connect 15 0 26 0;
#X connect 16 0 22 0;
#X connect 17 0 25 0;
#X connect 18 0 27 0;
#X connect 19 0 28 0;
#X connect 20 0 29 0;
#X connect 21 0 33 0;
#X connect 22 0 32 0;
#X connect 23 0 35 0;
#X connect 24 0 31 0;
#X connect 24 0 39 0;
#X connect 25 0 30 0;
#X connect 25 0 40 0;
#X connect 26 0 34 0;
#X connect 26 0 41 0;
#X connect 27 0 36 0;
#X connect 28 0 37 0;
#X connect 29 0 38 0;
#X connect 30 0 42 0;
#X connect 31 0 42 0;
#X connect 32 0 42 0;
#X connect 33 0 42 0;
#X connect 34 0 42 0;
#X connect 35 0 42 0;
#X connect 36 0 42 0;
#X connect 37 0 42 0;
#X connect 38 0 42 0;
#X connect 39 0 42 0;
#X connect 40 0 42 0;
#X connect 41 0 42 0;
#X connect 42 0 2 0;
#X connect 43 0 44 0;
#X connect 44 0 45 0;
#X connect 45 0 47 0;
#X connect 45 1 48 0;
#X connect 46 0 50 0;
#X connect 47 0 46 0;
#X connect 48 0 49 0;
#X connect 49 0 50 0;
#X connect 50 0 42 0;
