#N canvas 143 408 371 360 10;
#X obj 25 232 netsend -b -u;
#X obj 25 131 list prepend send;
#X obj 25 155 list trim;
#X obj 181 121 loadbang;
#X obj 25 256 tgl 15 0 empty empty connected 17 7 0 10 #fcfcfc #000000 #000000 0 1;
#X msg 180 172 disconnect;
#X msg 181 144 connect localhost 8000;
#X obj 25 276 sel 1;
#X obj 25 297 del 500;
#X obj 25 320 s \$0-connected;
#N canvas 0 0 849 244 send_OSC_MadMapper 0;
#X obj 599 91 bng 15 250 50 0 empty empty empty 17 7 0 10 #fcfcfc #000000 #000000;
#X obj 25 68 list;
#X obj 25 111 oscformat -f f;
#X obj 599 111 oscformat /connected;
#X obj 139 82 r PLAY;
#X obj 139 111 oscformat -f f playing;
#X msg 25 89 set \$1\$2 \$3 \, \$4;
#X obj 284 87 r VoixM-nb_chante;
#X obj 437 88 r VoixM-nb_juste;
#X obj 284 110 oscformat -f f nb_chante;
#X obj 437 111 oscformat -f f nb_juste;
#X obj 622 88 r \$0-connected;
#X obj 25 16 r Analyse;
#X obj 25 40 spigot, f 117;
#X obj 735 14 inlet on;
#X obj 25 199 outlet;
#X obj 25 173 spigot, f 118;
#X connect 0 0 3 0;
#X connect 1 0 6 0;
#X connect 2 0 16 0;
#X connect 3 0 16 0;
#X connect 4 0 5 0;
#X connect 5 0 16 0;
#X connect 6 0 2 0;
#X connect 7 0 9 0;
#X connect 8 0 10 0;
#X connect 9 0 16 0;
#X connect 10 0 16 0;
#X connect 11 0 3 0;
#X connect 12 0 13 0;
#X connect 13 0 1 0;
#X connect 14 0 13 1;
#X connect 14 0 16 1;
#X connect 16 0 15 0;
#X restore 25 54 pd send_OSC_MadMapper;
#X obj 25 31 tgl 18 1 empty empty to_MAD_MAPPER 0 -9 0 10 #feffc6 #000000 #000000 0 1;
#X obj 177 31 tgl 18 1 empty empty to_UNITY 0 -9 0 10 #feffc6 #000000 #000000 1 1;
#N canvas 461 329 1009 655 send_OSC_Unity 0;
#X obj 25 11 r Analyse;
#X obj 25 35 spigot, f 152;
#X obj 946 10 inlet on;
#X obj 25 628 outlet;
#X obj 25 602 spigot, f 154;
#X obj 25 131 s, f 16;
#X obj 25 81 t a a, f 16;
#X msg 118 107 symbol \$1\$2-\$3-snd;
#X msg 25 104 \$4;
#X obj 25 161 r mic1-justesse-snd;
#X obj 148 161 r mic1-force-snd;
#X obj 288 403 r mic3-force-snd;
#X obj 165 404 r mic3-justesse-snd;
#X obj 223 282 r mic2-force-snd;
#X obj 100 282 r mic2-justesse-snd;
#X obj 256 161 r mic1-impact-snd;
#X obj 331 282 r mic2-impact-snd;
#X obj 396 402 r mic3-impact-snd;
#X obj 148 227 oscformat -f f /composition/layers/9/clips/1/dashboard/link1;
#X obj 25 250 oscformat -f f /composition/layers/8/clips/1/dashboard/link2;
#X obj 223 348 oscformat -f f /composition/layers/6/clips/1/dashboard/link1;
#X obj 100 371 oscformat -f f /composition/layers/5/clips/1/dashboard/link2;
#X obj 288 468 oscformat -f f /composition/layers/3/clips/1/dashboard/link1;
#X obj 165 491 oscformat -f f /composition/layers/2/clips/1/dashboard/link2;
#X obj 256 204 oscformat -f i /composition/layers/7/clips/1/transport/position/behaviour/playdirection, f 87;
#X msg 256 182 0;
#X obj 331 324 oscformat -f i /composition/layers/4/clips/1/transport/position/behaviour/playdirection, f 89;
#X msg 331 303 0;
#X obj 396 445 oscformat -f i /composition/layers/1/clips/1/transport/position/behaviour/playdirection, f 88;
#X msg 396 425 0;
#X obj 396 543 oscformat /composition/columns/1/connect;
#X obj 396 523 bng 15 250 50 0 empty empty empty 17 7 0 10 #fcfcfc #000000 #000000;
#X obj 25 581 t a;
#X obj 420 521 r \$0-connected;
#X obj 25 58 list;
#X obj 25 228 * 1;
#X obj 148 205 * 1;
#X obj 100 349 * 1;
#X obj 223 326 * 1;
#X obj 165 469 * 1;
#X obj 288 446 * 1;
#X connect 0 0 1 0;
#X connect 1 0 34 0;
#X connect 2 0 1 1;
#X connect 2 0 4 1;
#X connect 4 0 3 0;
#X connect 6 0 8 0;
#X connect 6 1 7 0;
#X connect 7 0 5 1;
#X connect 8 0 5 0;
#X connect 9 0 35 0;
#X connect 10 0 36 0;
#X connect 11 0 40 0;
#X connect 12 0 39 0;
#X connect 13 0 38 0;
#X connect 14 0 37 0;
#X connect 15 0 25 0;
#X connect 16 0 27 0;
#X connect 17 0 29 0;
#X connect 18 0 32 0;
#X connect 19 0 32 0;
#X connect 20 0 32 0;
#X connect 21 0 32 0;
#X connect 22 0 32 0;
#X connect 23 0 32 0;
#X connect 24 0 32 0;
#X connect 25 0 24 0;
#X connect 26 0 32 0;
#X connect 27 0 26 0;
#X connect 28 0 32 0;
#X connect 29 0 28 0;
#X connect 30 0 32 0;
#X connect 31 0 30 0;
#X connect 32 0 4 0;
#X connect 33 0 30 0;
#X connect 34 0 6 0;
#X connect 35 0 19 0;
#X connect 36 0 18 0;
#X connect 37 0 21 0;
#X connect 38 0 20 0;
#X connect 39 0 23 0;
#X connect 40 0 22 0;
#X restore 177 54 pd send_OSC_Unity;
#X obj 109 295 bng 18 250 50 0 empty empty empty 0 -9 0 10 #fcfcfc #000000 #000000;
#X connect 0 0 4 0;
#X connect 1 0 2 0;
#X connect 2 0 0 0;
#X connect 3 0 6 0;
#X connect 4 0 7 0;
#X connect 5 0 0 0;
#X connect 6 0 0 0;
#X connect 7 0 8 0;
#X connect 8 0 9 0;
#X connect 10 0 1 0;
#X connect 11 0 10 0;
#X connect 12 0 13 0;
#X connect 13 0 1 0;
#X connect 14 0 9 0;
