#N canvas 292 378 537 476 12;
#X obj 43 38 inlet;
#X obj 43 62 route level;
#X msg 43 178 level \$1;
#X obj 43 400 outlet;
#X obj 43 92 apf config send_\$2_\$1 \$0-no 2;
#X obj 138 38 inlet~;
#X obj 137 232 i;
#X obj 137 276 change;
#X obj 137 190 env~ 2048;
#X obj 137 165 *~;
#X obj 155 141 pow 2;
#X obj 137 301 / 88;
#X obj 137 326 pow 2;
#X msg 137 349 vu \$1;
#X obj 230 379 s toRemoteDirect;
#X obj 230 355 oscformat sends_N 0;
#X msg 230 325 list vu \$1;
#X msg 324 325 set sends_\$2 \$1;
#X obj 324 222 loadbang;
#X obj 391 221 bng 15 250 50 0 empty empty empty 17 7 0 10 #fcfcfc #000000 #000000;
#X obj 324 277 - 1;
#X obj 210 191 throw~ out\$1;
#X floatatom 101 276 5 0 0 0 - - - 0;
#X obj 324 253 f \$1;
#X obj 324 301 list append \$2;
#X obj 137 211 / 5;
#X obj 137 254 * 5;
#X obj 6 91 f;
#X obj 43 135 f;
#X obj 208 34 r OSCrefresh;
#X obj 208 59 b;
#X connect 0 0 1 0;
#X connect 1 0 4 0;
#X connect 1 0 10 0;
#X connect 2 0 3 0;
#X connect 4 0 10 0;
#X connect 4 0 27 0;
#X connect 4 0 28 0;
#X connect 5 0 9 0;
#X connect 6 0 26 0;
#X connect 7 0 11 0;
#X connect 8 0 25 0;
#X connect 9 0 8 0;
#X connect 9 0 21 0;
#X connect 10 0 9 1;
#X connect 11 0 12 0;
#X connect 12 0 13 0;
#X connect 12 0 16 0;
#X connect 13 0 3 0;
#X connect 15 0 14 0;
#X connect 16 0 15 0;
#X connect 17 0 15 0;
#X connect 18 0 23 0;
#X connect 19 0 23 0;
#X connect 20 0 24 0;
#X connect 22 0 11 0;
#X connect 23 0 20 0;
#X connect 24 0 17 0;
#X connect 25 0 6 0;
#X connect 26 0 7 0;
#X connect 27 0 4 0;
#X connect 28 0 2 0;
#X connect 29 0 30 0;
#X connect 30 0 28 0;
