#N canvas 781 100 492 340 12;
#X obj 53 73 r fromRemote;
#X obj 53 97 route sends_\$1;
#X obj 53 126 clone -s 1 sends_chan 10 \$1;
#X obj 53 176 list trim;
#X obj 53 201 s toRemoteDirect;
#X obj 53 150 oscformat sends_\$1;
#X obj 239 78 inlet~;
#X obj 294 32 pow 2;
#X msg 293 89 \$1 20;
#X obj 293 112 line~;
#X obj 239 102 *~;
#X obj 294 8 r VoixM-MASTER;
#X obj 293 61 * 1;
#X obj 341 32 r PLAY;
#X obj 322 61 t b f;
#X connect 0 0 1 0;
#X connect 1 0 2 0;
#X connect 2 0 5 0;
#X connect 3 0 4 0;
#X connect 5 0 3 0;
#X connect 6 0 10 0;
#X connect 7 0 12 0;
#X connect 8 0 9 0;
#X connect 9 0 10 1;
#X connect 10 0 2 1;
#X connect 11 0 7 0;
#X connect 12 0 8 0;
#X connect 13 0 14 0;
#X connect 14 0 12 0;
#X connect 14 1 12 1;
