#N canvas 284 513 678 394 10;
#X obj 25 292 netsend -b -u;
#X obj 25 191 list prepend send;
#X obj 25 215 list trim;
#X obj 181 181 loadbang;
#X obj 25 316 tgl 15 0 empty empty connected 17 7 0 10 #fcfcfc #000000 #000000 0 1;
#X msg 180 232 disconnect;
#X msg 181 204 connect localhost 8000;
#X obj 25 336 sel 1;
#X obj 25 357 del 500;
#X obj 181 268 bng 15 250 50 0 empty empty empty 17 7 0 10 #fcfcfc #000000 #000000;
#X obj 25 16 r Analyse;
#X obj 25 40 list;
#X obj 25 83 oscformat -f f;
#X obj 181 288 oscformat /connected;
#X obj 156 50 r PLAY;
#X obj 156 79 oscformat -f f playing;
#X msg 25 61 set \$1\$2 \$3 \, \$4;
#X obj 346 54 r VoixM-nb_chante;
#X obj 514 52 r VoixM-nb_juste;
#X obj 346 77 oscformat -f f nb_chante;
#X obj 514 75 oscformat -f f nb_juste;
#X connect 0 0 4 0;
#X connect 1 0 2 0;
#X connect 2 0 0 0;
#X connect 3 0 6 0;
#X connect 4 0 7 0;
#X connect 5 0 0 0;
#X connect 6 0 0 0;
#X connect 7 0 8 0;
#X connect 8 0 13 0;
#X connect 9 0 13 0;
#X connect 10 0 11 0;
#X connect 11 0 16 0;
#X connect 12 0 1 0;
#X connect 13 0 1 0;
#X connect 14 0 15 0;
#X connect 15 0 1 0;
#X connect 16 0 12 0;
#X connect 17 0 19 0;
#X connect 18 0 20 0;
#X connect 19 0 1 0;
#X connect 20 0 1 0;
