#N canvas 1007 99 805 500 12;
#X obj 40 77 oscparse;
#X obj 40 101 list trim;
#X obj 40 54 netreceive -u -b 8000;
#X text 38 23 OSC receiver for testing Arbre;
#X obj 40 151 tgl 20 0 empty empty playing 0 28 0 12 #fcfcfc #000000 #000000 0 1;
#X obj 128 409 nbx 4 17 -1e+37 1e+37 0 0 empty empty force 0 25 0 12 #ffc7c6 #000000 #000000 0 256;
#X obj 190 409 nbx 4 17 -1e+37 1e+37 0 0 empty empty juste 0 25 0 12 #c6ffc7 #000000 #000000 0 256;
#X obj 252 407 bng 19 250 50 0 empty empty impact 0 28 0 12 #feffc6 #000000 #000000;
#X obj 128 382 route force justesse impact;
#X obj 171 344 nbx 4 17 -1e+37 1e+37 0 0 empty empty force 0 25 0 12 #ffc7c6 #000000 #000000 0 256;
#X obj 233 344 nbx 4 17 -1e+37 1e+37 0 0 empty empty juste 0 25 0 12 #c6ffc7 #000000 #000000 0 256;
#X obj 295 342 bng 19 250 50 0 empty empty impact 0 28 0 12 #feffc6 #000000 #000000;
#X obj 171 317 route force justesse impact;
#X obj 214 283 nbx 4 17 -1e+37 1e+37 0 0 empty empty force 0 25 0 12 #ffc7c6 #000000 #000000 0 256;
#X obj 276 283 nbx 4 17 -1e+37 1e+37 0 0 empty empty juste 0 25 0 12 #c6ffc7 #000000 #000000 0 256;
#X obj 338 281 bng 19 250 50 0 empty empty impact 0 28 0 12 #feffc6 #000000 #000000;
#X obj 214 256 route force justesse impact;
#X obj 257 218 nbx 4 17 -1e+37 1e+37 0 0 empty empty force 0 25 0 12 #ffc7c6 #000000 #000000 0 256;
#X obj 319 218 nbx 4 17 -1e+37 1e+37 0 0 empty empty juste 0 25 0 12 #c6ffc7 #000000 #000000 0 256;
#X obj 381 216 bng 19 250 50 0 empty empty impact 0 28 0 12 #feffc6 #000000 #000000;
#X obj 257 191 route force justesse impact;
#X obj 40 126 route playing;
#X obj 128 157 route mic1 mic2 mic3 mic4;
#X obj 465 415 nbx 4 17 -1e+37 1e+37 0 0 empty empty force 0 25 0 12 #ffc7c6 #000000 #000000 0 256;
#X obj 527 415 nbx 4 17 -1e+37 1e+37 0 0 empty empty juste 0 25 0 12 #c6ffc7 #000000 #000000 0 256;
#X obj 589 413 bng 19 250 50 0 empty empty impact 0 28 0 12 #feffc6 #000000 #000000;
#X obj 465 388 route force justesse impact;
#X obj 508 350 nbx 4 17 -1e+37 1e+37 0 0 empty empty force 0 25 0 12 #ffc7c6 #000000 #000000 0 256;
#X obj 570 350 nbx 4 17 -1e+37 1e+37 0 0 empty empty juste 0 25 0 12 #c6ffc7 #000000 #000000 0 256;
#X obj 632 348 bng 19 250 50 0 empty empty impact 0 28 0 12 #feffc6 #000000 #000000;
#X obj 508 323 route force justesse impact;
#X obj 551 289 nbx 4 17 -1e+37 1e+37 0 0 empty empty force 0 25 0 12 #ffc7c6 #000000 #000000 0 256;
#X obj 613 289 nbx 4 17 -1e+37 1e+37 0 0 empty empty juste 0 25 0 12 #c6ffc7 #000000 #000000 0 256;
#X obj 675 287 bng 19 250 50 0 empty empty impact 0 28 0 12 #feffc6 #000000 #000000;
#X obj 551 262 route force justesse impact;
#X obj 594 224 nbx 4 17 -1e+37 1e+37 0 0 empty empty force 0 25 0 12 #ffc7c6 #000000 #000000 0 256;
#X obj 656 224 nbx 4 17 -1e+37 1e+37 0 0 empty empty juste 0 25 0 12 #c6ffc7 #000000 #000000 0 256;
#X obj 718 222 bng 19 250 50 0 empty empty impact 0 28 0 12 #feffc6 #000000 #000000;
#X obj 594 197 route force justesse impact;
#X obj 465 163 route mic5 mic6 mic7 mic8;
#X listbox 114 100 91 0 0 0 - - - 0;
#X connect 0 0 1 0;
#X connect 0 0 40 0;
#X connect 1 0 21 0;
#X connect 2 0 0 0;
#X connect 8 0 5 0;
#X connect 8 1 6 0;
#X connect 8 2 7 0;
#X connect 12 0 9 0;
#X connect 12 1 10 0;
#X connect 12 2 11 0;
#X connect 16 0 13 0;
#X connect 16 1 14 0;
#X connect 16 2 15 0;
#X connect 20 0 17 0;
#X connect 20 1 18 0;
#X connect 20 2 19 0;
#X connect 21 0 4 0;
#X connect 21 1 22 0;
#X connect 22 0 8 0;
#X connect 22 1 12 0;
#X connect 22 2 16 0;
#X connect 22 3 20 0;
#X connect 22 4 39 0;
#X connect 26 0 23 0;
#X connect 26 1 24 0;
#X connect 26 2 25 0;
#X connect 30 0 27 0;
#X connect 30 1 28 0;
#X connect 30 2 29 0;
#X connect 34 0 31 0;
#X connect 34 1 32 0;
#X connect 34 2 33 0;
#X connect 38 0 35 0;
#X connect 38 1 36 0;
#X connect 38 2 37 0;
#X connect 39 0 26 0;
#X connect 39 1 30 0;
#X connect 39 2 34 0;
#X connect 39 3 38 0;
