#N canvas 1011 414 752 470 12;
#X obj 101 33 r fromRemote;
#X obj 101 58 route \$1;
#X obj 101 83 route saveas_name recall;
#X symbolatom 67 164 10 0 0 0 - - -;
#X obj 101 122 symbol;
#X symbolatom 359 113 0 0 0 0 - - -;
#X obj 183 123 symbol;
#X obj 494 241 b;
#X obj 494 266 del 500;
#X msg 494 291 list file 0;
#X obj 494 341 s toRemoteDirect;
#X obj 494 316 oscformat \$1;
#X obj 101 381 s Sequence;
#X obj 154 248 pdcontrol;
#X msg 154 223 dir;
#X obj 154 198 loadbang;
#X obj 101 274 pack s s;
#X msg 101 302 write -c \$2/../sequences/\$1;
#X msg 347 301 read -c \$1;
#X obj 315 243 t b s;
#X obj 315 351 s \$1-saveAndUpdateSeq;
#X connect 0 0 1 0;
#X connect 1 0 2 0;
#X connect 2 0 4 0;
#X connect 2 1 6 0;
#X connect 4 0 3 0;
#X connect 4 0 7 0;
#X connect 4 0 16 0;
#X connect 6 0 5 0;
#X connect 6 0 7 0;
#X connect 6 0 19 0;
#X connect 7 0 8 0;
#X connect 8 0 9 0;
#X connect 9 0 11 0;
#X connect 11 0 10 0;
#X connect 13 0 16 1;
#X connect 14 0 13 0;
#X connect 15 0 14 0;
#X connect 16 0 17 0;
#X connect 17 0 12 0;
#X connect 18 0 12 0;
#X connect 19 0 20 0;
#X connect 19 1 18 0;
