#N canvas 605 375 893 470 12;
#X obj 101 33 r fromRemote;
#X obj 101 58 route \$1;
#X symbolatom 115 169 10 0 0 0 - - - 0;
#X obj 101 122 symbol;
#X symbolatom 277 137 0 0 0 0 - - - 0;
#X obj 183 123 symbol;
#X obj 560 247 b;
#X obj 560 272 del 500;
#X msg 560 297 list file 0;
#X obj 560 347 s toRemoteDirect;
#X obj 560 322 oscformat \$1;
#X obj 154 248 pdcontrol;
#X msg 154 223 dir;
#X obj 154 198 loadbang;
#X obj 101 274 pack s s;
#X obj 315 243 t b s;
#X msg 101 302 savefile \$2/../configs/\$1;
#X obj 101 326 s config-apmaster-rcv;
#X obj 315 309 s config-save;
#X obj 368 231 s config-reload;
#X obj 368 205 b;
#X obj 259 242 b;
#X obj 661 322 oscformat configdir;
#X obj 661 270 pdcontrol;
#X msg 661 245 dir;
#X obj 101 83 route saveas_name recall save reload file, f 59;
#X obj 661 220 sel 1;
#X msg 661 298 symbol \$1/../configs;
#X msg 347 267 loadfile \$1;
#X connect 0 0 1 0;
#X connect 1 0 25 0;
#X connect 3 0 2 0;
#X connect 3 0 6 0;
#X connect 3 0 14 0;
#X connect 5 0 4 0;
#X connect 5 0 6 0;
#X connect 5 0 15 0;
#X connect 6 0 7 0;
#X connect 7 0 8 0;
#X connect 8 0 10 0;
#X connect 10 0 9 0;
#X connect 11 0 14 1;
#X connect 12 0 11 0;
#X connect 13 0 12 0;
#X connect 14 0 16 0;
#X connect 15 0 18 0;
#X connect 15 1 28 0;
#X connect 16 0 17 0;
#X connect 20 0 19 0;
#X connect 21 0 18 0;
#X connect 22 0 9 0;
#X connect 23 0 27 0;
#X connect 24 0 23 0;
#X connect 25 0 3 0;
#X connect 25 1 5 0;
#X connect 25 2 21 0;
#X connect 25 3 20 0;
#X connect 25 4 26 0;
#X connect 26 0 24 0;
#X connect 27 0 22 0;
#X connect 28 0 17 0;
