#N canvas 51 92 843 869 12;
#X obj 29 23 param VoixM Nappe;
#X obj 29 44 param VoixM SynthMono;
#X obj 28 75 param VoixM Accord;
#X obj 28 96 param VoixM Basse;
#X obj 209 24 param VoixM thresimpact;
#X obj 208 65 param VoixM force_speedup;
#X obj 208 87 param VoixM force_speeddn;
#X obj 208 111 param VoixM juste_speedup;
#X obj 208 133 param VoixM juste_speeddn;
#X obj 415 26 file_osc config;
#X obj 29 131 param VoixM MASTER;
#X obj 83 218 param timer in_h;
#X floatatom 83 245 5 0 0 0 - - - 0;
#X obj 203 218 param timer in_mn;
#X floatatom 203 246 5 0 0 0 - - - 0;
#X floatatom 334 243 5 0 0 0 - - - 0;
#X floatatom 465 241 5 0 0 0 - - - 0;
#X obj 334 218 param timer out_h;
#X obj 465 218 param timer out_mn;
#X obj 621 300 time, f 16;
#X obj 350 511 tgl 19 0 empty empty empty 0 -10 0 12 #fcfcfc #000000 #000000 0 1;
#X obj 621 273 metro 1000;
#X obj 621 218 loadbang;
#X obj 621 242 tgl 19 0 empty empty empty 0 -10 0 12 #fcfcfc #000000 #000000 0 1;
#X obj 129 245 t b f;
#X obj 84 319 s \$0-intime;
#X obj 404 257 t b f;
#X obj 334 312 s \$0-outtime;
#X obj 621 368 s \$0-time;
#X obj 84 374 r \$0-time;
#X obj 84 296 +;
#X obj 334 288 +;
#X obj 621 322 * 60;
#X obj 83 270 * 60;
#X obj 334 265 * 60;
#X obj 621 344 +;
#X obj 115 401 r \$0-intime;
#X obj 245 401 r \$0-outtime;
#X obj 181 681 || 1;
#X obj 219 657 == 0;
#X obj 181 709 tgl 19 0 empty empty empty 0 -10 0 12 #fcfcfc #000000 #000000 0 1;
#X obj 181 733 change;
#X obj 181 757 s PLAY;
#X obj 310 462 param timer enable;
#X obj 83 428 sel 0;
#X msg 83 452 1;
#X obj 213 424 sel 0;
#X obj 213 375 r \$0-time;
#X msg 213 448 0;
#X obj 83 476 f;
#X obj 83 500 tgl 19 0 empty empty empty 0 -10 0 12 #fcfcfc #000000 #000000 0 1;
#X msg 83 524 list on \$1;
#X obj 83 552 oscformat timer;
#X obj 83 579 s toRemoteDirect;
#X obj 222 542 r fromRemote;
#X obj 222 566 route timer;
#X obj 222 590 route on;
#X obj 181 649 tgl 19 0 empty empty empty 0 -10 0 12 #fcfcfc #000000 #000000 0 1;
#X obj 218 682 t b f;
#X connect 11 0 12 0;
#X connect 12 0 33 0;
#X connect 13 0 14 0;
#X connect 14 0 24 0;
#X connect 15 0 34 0;
#X connect 16 0 26 0;
#X connect 17 0 15 0;
#X connect 18 0 16 0;
#X connect 19 0 32 0;
#X connect 19 1 35 1;
#X connect 21 0 19 0;
#X connect 22 0 23 0;
#X connect 23 0 21 0;
#X connect 24 0 30 0;
#X connect 24 1 30 1;
#X connect 26 0 31 0;
#X connect 26 1 31 1;
#X connect 29 0 44 0;
#X connect 30 0 25 0;
#X connect 31 0 27 0;
#X connect 32 0 35 0;
#X connect 33 0 30 0;
#X connect 34 0 31 0;
#X connect 35 0 28 0;
#X connect 36 0 44 1;
#X connect 37 0 46 1;
#X connect 38 0 40 0;
#X connect 39 0 58 0;
#X connect 40 0 41 0;
#X connect 41 0 42 0;
#X connect 43 0 20 0;
#X connect 43 0 39 0;
#X connect 44 0 45 0;
#X connect 45 0 49 0;
#X connect 46 0 48 0;
#X connect 47 0 46 0;
#X connect 48 0 49 0;
#X connect 49 0 50 0;
#X connect 50 0 51 0;
#X connect 50 0 57 0;
#X connect 51 0 52 0;
#X connect 52 0 53 0;
#X connect 54 0 55 0;
#X connect 55 0 56 0;
#X connect 56 0 57 0;
#X connect 57 0 38 0;
#X connect 58 0 38 0;
#X connect 58 1 38 1;
