#N canvas 873 20 763 804 10;
#X obj 29 23 param VoixM Nappe;
#X obj 29 44 param VoixM SynthMono;
#X obj 28 75 param VoixM Accord;
#X obj 28 96 param VoixM Basse;
#X obj 209 24 param VoixM thresimpact;
#X obj 208 65 param VoixM force_speedup;
#X obj 208 87 param VoixM force_speeddn;
#X obj 208 111 param VoixM juste_speedup;
#X obj 208 133 param VoixM juste_speeddn;
#X obj 415 26 file_osc config;
#X obj 29 131 param VoixM MASTER;
#X obj 44 207 param timer in_h;
#X floatatom 44 234 5 0 0 0 - - - 0;
#X obj 164 207 param timer in_mn;
#X floatatom 164 235 5 0 0 0 - - - 0;
#X floatatom 295 232 5 0 0 0 - - - 0;
#X floatatom 426 230 5 0 0 0 - - - 0;
#X obj 295 207 param timer out_h;
#X obj 426 207 param timer out_mn;
#X obj 445 413 time, f 18;
#X obj 377 710 tgl 19 0 empty empty empty 0 -10 0 12 #fcfcfc #000000 #000000 0 1;
#X obj 445 358 metro 1000;
#X obj 445 308 loadbang;
#X obj 445 332 tgl 19 0 empty empty empty 0 -10 0 12 #fcfcfc #000000 #000000 0 1;
#X obj 90 234 t b f;
#X obj 44 308 s \$0-intime;
#X obj 365 246 t b f;
#X obj 295 301 s \$0-outtime;
#X obj 445 486 s \$0-time;
#X obj 43 361 r \$0-time;
#X obj 44 285 +;
#X obj 295 277 +;
#X obj 445 461 +, f 6;
#X obj 75 385 r \$0-intime;
#X obj 205 385 r \$0-outtime;
#X obj 260 696 || 1;
#X obj 298 672 == 0;
#X obj 260 724 tgl 19 0 empty empty empty 0 -10 0 12 #fcfcfc #000000 #000000 0 1;
#X obj 260 748 change;
#X obj 260 772 s PLAY;
#X obj 298 644 param timer enable;
#X obj 43 412 sel 0;
#X msg 43 436 1;
#X obj 173 408 sel 0;
#X obj 173 359 r \$0-time;
#X msg 173 432 0;
#X obj 43 587 f;
#X obj 43 693 tgl 19 0 empty empty empty 0 -10 0 12 #fcfcfc #000000 #000000 0 1;
#X msg 43 717 list on \$1;
#X obj 43 745 oscformat timer;
#X obj 43 772 s toRemoteDirect;
#X obj 260 569 r fromRemote;
#X obj 260 593 route timer;
#X obj 260 617 route on;
#X obj 260 664 tgl 19 0 empty empty empty 0 -10 0 12 #fcfcfc #000000 #000000 0 1;
#X obj 297 697 t b f;
#X obj 621 490 +;
#X obj 603 412 date, f 16;
#X obj 621 518 s \$0-date;
#X obj 621 468 * 100;
#X floatatom 718 493 5 0 0 0 - - - 0;
#X floatatom 579 519 5 0 0 0 - - - 0;
#X obj 658 490 s \$0-day;
#X msg 43 614 0 \$1;
#N canvas 161 74 556 441 scheduler_text 0;
#X obj 25 401 outlet;
#X obj 294 40 r timer-schedule_text;
#X msg 294 125 read -c ../schedule.txt;
#X obj 316 68 loadbang;
#X obj 294 100 t b;
#X obj 27 22 r \$0-date;
#X floatatom 27 71 5 0 0 0 - - - 0;
#X obj 25 236 r \$0-time;
#X obj 120 237 r \$0-day;
#X obj 71 72 bng 20 250 50 0 empty empty empty 0 -10 0 12 #fcfcfc #000000 #000000;
#X obj 25 320 t f f;
#X obj 57 344 <;
#X obj 25 345 >=;
#X obj 25 370 &&, f 5;
#X obj 27 96 t f b;
#X msg 59 120 const 0;
#X obj 59 173 s \$0-sched-on;
#X obj 72 147 s \$0-sched-off;
#X obj 99 290 array get \$0-sched-on 0 1;
#X obj 99 316 array get \$0-sched-off 0 1;
#X obj 294 150 text define \$0-sched-text;
#X obj 327 97 bng 20 250 50 0 empty empty empty 0 -10 0 12 #fcfcfc #000000 #000000;
#N canvas 619 268 463 649 scan_text_for_today 0;
#X msg 39 65 line 0 \, auto;
#X obj 39 91 text sequence \$0-sched-text;
#X obj 39 173 unpack f f;
#X obj 39 198 * 100;
#X obj 39 223 +;
#X obj 39 12 inlet;
#X obj 39 119 list trim;
#X obj 39 39 t b f, f 14;
#X obj 39 248 <=, f 14;
#X obj 190 176 spigot;
#X obj 190 362 list, f 23;
#X obj 39 279 sel 1;
#X msg 39 303 const 0;
#X obj 39 356 s \$0-sched-on;
#X obj 52 330 s \$0-sched-off;
#X obj 222 303 +, f 5;
#X obj 222 253 unpack f f f f;
#X obj 285 303 +, f 5;
#X obj 190 387 list split 1;
#X obj 230 412 t a;
#X obj 190 230 t b a;
#X obj 190 468 pack f f;
#X obj 190 493 s \$0-sched-on;
#X obj 299 468 pack f f;
#X obj 299 493 s \$0-sched-off;
#X obj 190 439 t f f, f 16;
#X obj 222 278 * 100;
#X obj 285 278 * 100;
#X obj 237 531 pack f f f;
#X obj 237 567 print on/off;
#X obj 140 565 print reset;
#X obj 190 205 route hours days, f 26;
#X obj 39 145 route date, f 22;
#X connect 0 0 1 0;
#X connect 1 0 6 0;
#X connect 2 0 3 0;
#X connect 2 1 4 1;
#X connect 3 0 4 0;
#X connect 4 0 8 0;
#X connect 5 0 7 0;
#X connect 6 0 32 0;
#X connect 7 0 0 0;
#X connect 7 1 8 1;
#X connect 8 0 11 0;
#X connect 8 0 9 1;
#X connect 9 0 31 0;
#X connect 10 0 18 0;
#X connect 11 0 12 0;
#X connect 11 0 10 1;
#X connect 12 0 13 0;
#X connect 12 0 14 0;
#X connect 15 0 21 1;
#X connect 16 0 26 0;
#X connect 16 1 15 1;
#X connect 16 2 27 0;
#X connect 16 3 17 1;
#X connect 17 0 23 1;
#X connect 17 0 28 2;
#X connect 18 0 25 0;
#X connect 18 1 19 0;
#X connect 19 0 18 0;
#X connect 20 0 10 0;
#X connect 20 1 16 0;
#X connect 21 0 22 0;
#X connect 21 0 28 0;
#X connect 23 0 24 0;
#X connect 25 0 21 0;
#X connect 25 1 23 0;
#X connect 26 0 15 0;
#X connect 27 0 17 0;
#X connect 31 0 20 0;
#X connect 31 1 10 1;
#X connect 32 0 2 0;
#X connect 32 1 9 0;
#X restore 27 197 pd scan_text_for_today;
#X msg 132 40 \$1 12;
#X obj 132 65 unpack f f;
#X obj 132 90 * 100;
#X obj 132 115 +, f 10;
#X msg 106 5 1;
#X msg 171 5 24;
#X msg 140 5 23;
#X msg 201 5 25;
#X msg 233 6 30;
#X msg 264 5 31;
#X obj 295 178 array define \$0-sched-on 10;
#X obj 295 205 array define \$0-sched-off 10;
#X msg 183 39 1 1;
#X msg 224 39 1 2;
#X obj 109 358 bng 18 250 50 0 empty empty empty 0 -9 0 10 #fcfcfc #000000 #000000;
#X obj 27 46 change;
#X connect 1 0 4 0;
#X connect 2 0 20 0;
#X connect 3 0 4 0;
#X connect 4 0 2 0;
#X connect 5 0 38 0;
#X connect 6 0 14 0;
#X connect 7 0 10 0;
#X connect 8 0 18 0;
#X connect 8 0 19 0;
#X connect 9 0 6 0;
#X connect 10 0 12 0;
#X connect 10 1 11 0;
#X connect 11 0 13 1;
#X connect 12 0 13 0;
#X connect 13 0 0 0;
#X connect 13 0 37 0;
#X connect 14 0 22 0;
#X connect 14 1 15 0;
#X connect 15 0 16 0;
#X connect 15 0 17 0;
#X connect 18 0 12 1;
#X connect 19 0 11 1;
#X connect 21 0 4 0;
#X connect 23 0 24 0;
#X connect 24 0 25 0;
#X connect 24 1 26 1;
#X connect 25 0 26 0;
#X connect 26 0 6 0;
#X connect 27 0 23 0;
#X connect 28 0 23 0;
#X connect 29 0 23 0;
#X connect 30 0 23 0;
#X connect 31 0 23 0;
#X connect 32 0 23 0;
#X connect 35 0 24 0;
#X connect 36 0 24 0;
#X connect 38 0 6 0;
#X restore 119 482 pd scheduler_text;
#X obj 119 589 f;
#X msg 119 614 1 \$1;
#X obj 43 646 route 0;
#X obj 138 518 param timer schedule_text;
#X obj 138 543 t b f;
#X obj 445 383 t b b, f 23;
#X obj 44 259 * 100;
#X obj 295 254 * 100;
#X obj 445 439 * 100;
#X floatatom 400 446 5 0 0 0 - - - 0;
#X obj 85 487 tgl 20 0 empty empty empty 0 -10 0 12 #fcfcfc #000000 #000000 0 1;
#X obj 182 545 tgl 20 0 empty empty empty 0 -10 0 12 #fcfcfc #000000 #000000 0 1;
#X obj 658 441 sel 0;
#X msg 658 464 7;
#X connect 11 0 12 0;
#X connect 12 0 71 0;
#X connect 13 0 14 0;
#X connect 14 0 24 0;
#X connect 15 0 72 0;
#X connect 16 0 26 0;
#X connect 17 0 15 0;
#X connect 18 0 16 0;
#X connect 19 0 73 0;
#X connect 19 1 32 1;
#X connect 21 0 70 0;
#X connect 22 0 23 0;
#X connect 23 0 21 0;
#X connect 24 0 30 0;
#X connect 24 1 30 1;
#X connect 26 0 31 0;
#X connect 26 1 31 1;
#X connect 29 0 41 0;
#X connect 30 0 25 0;
#X connect 31 0 27 0;
#X connect 32 0 74 0;
#X connect 32 0 28 0;
#X connect 33 0 41 1;
#X connect 34 0 43 1;
#X connect 35 0 37 0;
#X connect 36 0 55 0;
#X connect 37 0 38 0;
#X connect 38 0 39 0;
#X connect 40 0 20 0;
#X connect 40 0 36 0;
#X connect 41 0 42 0;
#X connect 42 0 46 0;
#X connect 43 0 45 0;
#X connect 44 0 43 0;
#X connect 45 0 46 0;
#X connect 46 0 63 0;
#X connect 47 0 48 0;
#X connect 47 0 54 0;
#X connect 48 0 49 0;
#X connect 49 0 50 0;
#X connect 51 0 52 0;
#X connect 52 0 53 0;
#X connect 53 0 54 0;
#X connect 54 0 35 0;
#X connect 55 0 35 0;
#X connect 55 1 35 1;
#X connect 56 0 58 0;
#X connect 56 0 61 0;
#X connect 57 1 59 0;
#X connect 57 2 56 1;
#X connect 57 3 77 0;
#X connect 59 0 56 0;
#X connect 63 0 67 0;
#X connect 64 0 65 0;
#X connect 64 0 75 0;
#X connect 65 0 66 0;
#X connect 66 0 67 0;
#X connect 67 0 47 0;
#X connect 68 0 69 0;
#X connect 68 0 76 0;
#X connect 69 0 65 0;
#X connect 69 0 46 0;
#X connect 69 1 67 1;
#X connect 70 0 19 0;
#X connect 70 1 57 0;
#X connect 71 0 30 0;
#X connect 72 0 31 0;
#X connect 73 0 32 0;
#X connect 77 0 78 0;
#X connect 77 1 62 0;
#X connect 77 1 60 0;
#X connect 78 0 62 0;
#X connect 78 0 60 0;
