#N canvas 315 83 885 804 10;
#X obj 29 23 param VoixM Nappe;
#X obj 29 44 param VoixM SynthMono;
#X obj 28 75 param VoixM Accord;
#X obj 28 96 param VoixM Basse;
#X obj 209 24 param VoixM thresimpact;
#X obj 208 65 param VoixM force_speedup;
#X obj 208 87 param VoixM force_speeddn;
#X obj 208 111 param VoixM juste_speedup;
#X obj 208 133 param VoixM juste_speeddn;
#X obj 415 26 file_osc config;
#X obj 29 131 param VoixM MASTER;
#X obj 44 207 param timer in_h;
#X floatatom 44 234 5 0 0 0 - - - 0;
#X obj 164 207 param timer in_mn;
#X floatatom 164 235 5 0 0 0 - - - 0;
#X floatatom 295 232 5 0 0 0 - - - 0;
#X floatatom 426 230 5 0 0 0 - - - 0;
#X obj 295 207 param timer out_h;
#X obj 426 207 param timer out_mn;
#X obj 445 413 time, f 18;
#X obj 377 710 tgl 19 0 empty empty empty 0 -10 0 12 #fcfcfc #000000 #000000 0 1;
#X obj 445 358 metro 1000;
#X obj 445 308 loadbang;
#X obj 445 332 tgl 19 0 empty empty empty 0 -10 0 12 #fcfcfc #000000 #000000 0 1;
#X obj 90 234 t b f;
#X obj 44 308 s \$0-intime;
#X obj 365 246 t b f;
#X obj 295 301 s \$0-outtime;
#X obj 445 486 s \$0-time;
#X obj 43 361 r \$0-time;
#X obj 44 285 +;
#X obj 295 277 +;
#X obj 445 461 +, f 6;
#X obj 75 385 r \$0-intime;
#X obj 205 385 r \$0-outtime;
#X obj 260 696 || 1;
#X obj 298 672 == 0;
#X obj 260 724 tgl 19 0 empty empty empty 0 -10 0 12 #fcfcfc #000000 #000000 0 1;
#X obj 260 748 change;
#X obj 260 772 s PLAY;
#X obj 298 644 param timer enable;
#X obj 43 412 sel 0;
#X msg 43 436 1;
#X obj 173 408 sel 0;
#X obj 173 359 r \$0-time;
#X msg 173 432 0;
#X obj 43 587 f;
#X obj 43 693 tgl 19 0 empty empty empty 0 -10 0 12 #fcfcfc #000000 #000000 0 1;
#X msg 43 717 list on \$1;
#X obj 43 745 oscformat timer;
#X obj 43 772 s toRemoteDirect;
#X obj 260 569 r fromRemote;
#X obj 260 593 route timer;
#X obj 260 617 route on;
#X obj 260 664 tgl 19 0 empty empty empty 0 -10 0 12 #fcfcfc #000000 #000000 0 1;
#X obj 297 697 t b f;
#X obj 621 490 +;
#X obj 603 412 date, f 16;
#X obj 621 518 s \$0-date;
#X obj 621 468 * 100;
#X floatatom 718 493 5 0 0 0 - - - 0;
#X floatatom 579 519 5 0 0 0 - - - 0;
#X obj 658 490 s \$0-day;
#X msg 43 614 0 \$1;
#N canvas 159 89 556 441 scheduler_text 0;
#X obj 25 401 outlet;
#X obj 294 40 r timer-schedule_text;
#X msg 294 125 read -c ../schedule.txt;
#X obj 316 68 loadbang;
#X obj 294 100 t b;
#X obj 27 22 r \$0-date;
#X floatatom 27 71 5 0 0 0 - - - 0;
#X obj 25 236 r \$0-time;
#X obj 120 237 r \$0-day;
#X obj 71 72 bng 20 250 50 0 empty empty empty 0 -10 0 12 #fcfcfc #000000 #000000;
#X obj 25 320 t f f;
#X obj 57 344 <;
#X obj 25 345 >=;
#X obj 25 370 &&, f 5;
#X obj 27 96 t f b;
#X msg 59 120 const 0;
#X obj 59 173 s \$0-sched-on;
#X obj 72 147 s \$0-sched-off;
#X obj 99 290 array get \$0-sched-on 0 1;
#X obj 99 316 array get \$0-sched-off 0 1;
#X obj 294 150 text define \$0-sched-text;
#X obj 327 97 bng 20 250 50 0 empty empty empty 0 -10 0 12 #fcfcfc #000000 #000000;
#N canvas 638 70 463 649 scan_text_for_today 0;
#X msg 39 65 line 0 \, auto;
#X obj 39 91 text sequence \$0-sched-text;
#X obj 39 173 unpack f f;
#X obj 54 200 * 100;
#X obj 39 223 +;
#X obj 39 12 inlet;
#X obj 39 119 list trim;
#X obj 39 39 t b f, f 14;
#X obj 39 248 <=, f 14;
#X obj 190 176 spigot;
#X obj 190 362 list, f 23;
#X obj 39 279 sel 1;
#X msg 39 303 const 0;
#X obj 39 356 s \$0-sched-on;
#X obj 52 330 s \$0-sched-off;
#X obj 222 303 +, f 5;
#X obj 222 253 unpack f f f f;
#X obj 285 303 +, f 5;
#X obj 190 387 list split 1;
#X obj 230 412 t a;
#X obj 190 230 t b a;
#X obj 190 468 pack f f;
#X obj 190 493 s \$0-sched-on;
#X obj 299 468 pack f f;
#X obj 299 493 s \$0-sched-off;
#X obj 190 439 t f f, f 16;
#X obj 222 278 * 100;
#X obj 285 278 * 100;
#X obj 237 531 pack f f f;
#X obj 237 567 print on/off;
#X obj 140 565 print reset;
#X obj 190 205 route hours days, f 26;
#X obj 39 145 route date, f 22;
#X msg 254 49 date 24 12;
#X connect 0 0 1 0;
#X connect 1 0 6 0;
#X connect 2 0 4 0;
#X connect 2 1 3 0;
#X connect 3 0 4 1;
#X connect 4 0 8 0;
#X connect 5 0 7 0;
#X connect 6 0 32 0;
#X connect 7 0 0 0;
#X connect 7 1 8 1;
#X connect 8 0 11 0;
#X connect 8 0 9 1;
#X connect 9 0 31 0;
#X connect 10 0 18 0;
#X connect 11 0 12 0;
#X connect 11 0 10 1;
#X connect 12 0 13 0;
#X connect 12 0 14 0;
#X connect 15 0 21 1;
#X connect 16 0 26 0;
#X connect 16 1 15 1;
#X connect 16 2 27 0;
#X connect 16 3 17 1;
#X connect 17 0 23 1;
#X connect 17 0 28 2;
#X connect 18 0 25 0;
#X connect 18 1 19 0;
#X connect 19 0 18 0;
#X connect 20 0 10 0;
#X connect 20 1 16 0;
#X connect 21 0 22 0;
#X connect 21 0 28 0;
#X connect 23 0 24 0;
#X connect 25 0 21 0;
#X connect 25 1 23 0;
#X connect 26 0 15 0;
#X connect 27 0 17 0;
#X connect 31 0 20 0;
#X connect 31 1 10 1;
#X connect 32 0 2 0;
#X connect 32 1 9 0;
#X connect 33 0 32 0;
#X restore 27 197 pd scan_text_for_today;
#X msg 132 40 \$1 12;
#X obj 132 65 unpack f f;
#X obj 132 90 * 100;
#X obj 132 115 +, f 10;
#X msg 106 5 1;
#X msg 171 5 24;
#X msg 140 5 23;
#X msg 201 5 25;
#X msg 233 6 30;
#X msg 264 5 31;
#X obj 295 178 array define \$0-sched-on 10;
#X obj 295 205 array define \$0-sched-off 10;
#X msg 183 39 1 1;
#X msg 224 39 1 2;
#X obj 109 358 bng 18 250 50 0 empty empty empty 0 -9 0 10 #fcfcfc #000000 #000000;
#X obj 27 46 change;
#X obj 265 128 bng 18 250 50 0 empty empty empty 0 -9 0 10 #fcfcfc #000000 #000000;
#X msg 241 94 set -1;
#X connect 1 0 4 0;
#X connect 1 0 40 0;
#X connect 2 0 20 0;
#X connect 3 0 4 0;
#X connect 4 0 2 0;
#X connect 4 0 39 0;
#X connect 5 0 38 0;
#X connect 6 0 14 0;
#X connect 7 0 10 0;
#X connect 8 0 18 0;
#X connect 8 0 19 0;
#X connect 9 0 6 0;
#X connect 10 0 12 0;
#X connect 10 1 11 0;
#X connect 11 0 13 1;
#X connect 12 0 13 0;
#X connect 13 0 0 0;
#X connect 13 0 37 0;
#X connect 14 0 22 0;
#X connect 14 1 15 0;
#X connect 15 0 16 0;
#X connect 15 0 17 0;
#X connect 18 0 12 1;
#X connect 19 0 11 1;
#X connect 21 0 4 0;
#X connect 23 0 24 0;
#X connect 24 0 25 0;
#X connect 24 1 26 1;
#X connect 25 0 26 0;
#X connect 26 0 6 0;
#X connect 27 0 23 0;
#X connect 28 0 23 0;
#X connect 29 0 23 0;
#X connect 30 0 23 0;
#X connect 31 0 23 0;
#X connect 32 0 23 0;
#X connect 35 0 24 0;
#X connect 36 0 24 0;
#X connect 38 0 6 0;
#X connect 40 0 38 0;
#X restore 119 482 pd scheduler_text;
#X obj 119 589 f;
#X msg 119 614 1 \$1;
#X obj 43 646 route 0;
#X obj 138 518 param timer schedule_text;
#X obj 138 543 t b f;
#X obj 445 383 t b b, f 23;
#X obj 44 259 * 100;
#X obj 295 254 * 100;
#X obj 445 439 * 100;
#X floatatom 400 446 5 0 0 0 - - - 0;
#X obj 85 487 tgl 20 0 empty empty empty 0 -10 0 12 #fcfcfc #000000 #000000 0 1;
#X obj 182 545 tgl 20 0 empty empty empty 0 -10 0 12 #fcfcfc #000000 #000000 0 1;
#X obj 658 441 sel 0;
#X msg 658 464 7;
#N canvas 612 23 613 421 date-time-simulator 0;
#X obj 198 198 metro 1;
#X floatatom 237 176 5 1 1000 0 - - - 0;
#X msg 237 151 1;
#X msg 301 150 10;
#X obj 198 153 tgl 18 0 empty empty empty 0 -9 0 10 #fcfcfc #000000 #000000 0 1;
#X obj 198 221 bng 18 250 50 0 empty empty empty 0 -9 0 10 #fcfcfc #000000 #000000;
#X msg 331 150 100;
#X obj 416 180 hradio 18 1 0 7 empty empty empty 0 -9 0 10 #fcfcfc #000000 #000000 0;
#X obj 416 203 + 1;
#X floatatom 416 226 5 0 0 0 - - - 0;
#X obj 146 288 r \$0-date;
#X obj 251 287 r \$0-day;
#X obj 251 310 sel 1 2 3 4 5 6 7, f 52;
#X msg 251 333 lundi;
#X msg 289 333 mardi;
#X msg 327 333 mercredi;
#X msg 383 333 jeudi;
#X msg 421 333 vendredi;
#X msg 478 334 samedi;
#X msg 520 333 dimanche;
#X obj 251 356 symbol;
#X listbox 251 379 20 0 0 0 - - - 0;
#X obj 146 311 t f f;
#X floatatom 146 357 5 0 0 3 month - - 0;
#X obj 146 335 div 100;
#X obj 194 334 mod 100;
#X floatatom 194 357 5 0 0 3 day - - 0;
#X obj 36 312 t f f;
#X floatatom 36 358 5 0 0 3 h - - 0;
#X obj 36 336 div 100;
#X obj 84 335 mod 100;
#X floatatom 84 358 5 0 0 3 mn - - 0;
#X obj 36 289 r \$0-time;
#X msg 74 91 12 24 16 50;
#X msg 57 63 12 23 22 0;
#X msg 38 33 12 22 15 0;
#X text 416 159 set initial day (mon-sun);
#X text 237 131 minute increment time (ms);
#X text 169 132 increment;
#X text 216 221 increment once (1 minute);
#X text 34 8 set initial date (month day hour min);
#N canvas 0 0 872 472 increment_minute 0;
#X obj 44 82 unpack f f f f, f 62;
#X obj 428 145 f;
#X obj 428 168 + 1;
#X obj 428 237 unpack f f;
#X msg 428 214 1 0;
#X obj 461 215 list prepend 0;
#X obj 296 144 +;
#X obj 296 214 unpack f f;
#X msg 296 191 1 0;
#X obj 329 192 list prepend 0;
#X obj 159 143 +;
#X obj 159 213 unpack f f;
#X obj 192 191 list prepend 0;
#X msg 159 190 1 1;
#X obj 29 141 +;
#X obj 29 211 unpack f f;
#X obj 62 189 list prepend 0;
#X msg 29 188 1 1;
#X obj 86 278 pack f f f f, f 66;
#X obj 29 165 sel 13;
#X obj 159 167 sel 32;
#X obj 428 191 sel 60;
#X obj 296 168 sel 24;
#X obj 296 237 t f f;
#X text 41 26 set initial date (month day hour min);
#X obj 44 47 inlet;
#X obj 460 45 inlet;
#X obj 460 68 b;
#X text 453 24 increment once (1 minute);
#X obj 323 334 - 1;
#X obj 323 357 mod 7;
#X obj 323 380 + 1;
#X floatatom 323 403 5 0 0 0 - - - 0;
#X obj 323 311 + 1;
#X obj 323 425 s \$0-day;
#X floatatom 661 81 5 0 0 0 - - - 0;
#X listbox 86 302 20 0 0 0 - - - 0;
#X obj 86 353 unpack f f f f, f 20;
#X obj 86 399 +, f 7;
#X obj 86 422 s \$0-time;
#X obj 164 400 +, f 7;
#X obj 164 423 s \$0-date;
#X msg 86 326 \$3 \$4 \$1 \$2;
#X obj 86 376 * 100;
#X obj 164 377 * 100;
#X obj 653 51 inlet;
#X text 647 29 set initial day (mon=1 sun=7);
#X connect 0 0 14 1;
#X connect 0 1 10 1;
#X connect 0 2 6 1;
#X connect 0 3 1 1;
#X connect 1 0 2 0;
#X connect 2 0 21 0;
#X connect 3 0 6 0;
#X connect 3 1 1 1;
#X connect 3 1 18 3;
#X connect 4 0 3 0;
#X connect 5 0 3 0;
#X connect 6 0 22 0;
#X connect 7 0 23 0;
#X connect 7 1 6 1;
#X connect 7 1 18 2;
#X connect 8 0 7 0;
#X connect 9 0 7 0;
#X connect 10 0 20 0;
#X connect 11 0 14 0;
#X connect 11 1 10 1;
#X connect 11 1 18 1;
#X connect 12 0 11 0;
#X connect 13 0 11 0;
#X connect 14 0 19 0;
#X connect 15 1 14 1;
#X connect 15 1 18 0;
#X connect 16 0 15 0;
#X connect 17 0 15 0;
#X connect 18 0 36 0;
#X connect 19 0 17 0;
#X connect 19 1 16 0;
#X connect 20 0 13 0;
#X connect 20 1 12 0;
#X connect 21 0 4 0;
#X connect 21 1 5 0;
#X connect 22 0 8 0;
#X connect 22 1 9 0;
#X connect 23 0 10 0;
#X connect 23 1 33 0;
#X connect 25 0 0 0;
#X connect 26 0 27 0;
#X connect 27 0 1 0;
#X connect 29 0 30 0;
#X connect 30 0 31 0;
#X connect 31 0 32 0;
#X connect 31 0 33 1;
#X connect 32 0 34 0;
#X connect 33 0 29 0;
#X connect 36 0 42 0;
#X connect 37 0 43 0;
#X connect 37 1 38 1;
#X connect 37 2 44 0;
#X connect 37 3 40 1;
#X connect 38 0 39 0;
#X connect 40 0 41 0;
#X connect 42 0 37 0;
#X connect 43 0 38 0;
#X connect 44 0 40 0;
#X connect 45 0 33 1;
#X connect 45 0 35 0;
#X connect 45 0 29 0;
#X restore 38 245 pd increment_minute;
#X f 54;
#X text 108 31 22 décembre \, 15h00;
#X text 128 64 23 décembre \, 22h00;
#X text 149 92 23 décembre \, 16h50;
#X msg 269 151 3;
#X connect 0 0 5 0;
#X connect 1 0 0 1;
#X connect 2 0 1 0;
#X connect 3 0 1 0;
#X connect 4 0 0 0;
#X connect 5 0 41 1;
#X connect 6 0 1 0;
#X connect 7 0 8 0;
#X connect 8 0 9 0;
#X connect 8 0 41 2;
#X connect 10 0 22 0;
#X connect 11 0 12 0;
#X connect 12 0 13 0;
#X connect 12 1 14 0;
#X connect 12 2 15 0;
#X connect 12 3 16 0;
#X connect 12 4 17 0;
#X connect 12 5 18 0;
#X connect 12 6 19 0;
#X connect 13 0 20 0;
#X connect 14 0 20 0;
#X connect 15 0 20 0;
#X connect 16 0 20 0;
#X connect 17 0 20 0;
#X connect 18 0 20 0;
#X connect 19 0 20 0;
#X connect 20 0 21 0;
#X connect 22 0 24 0;
#X connect 22 1 25 0;
#X connect 24 0 23 0;
#X connect 25 0 26 0;
#X connect 27 0 29 0;
#X connect 27 1 30 0;
#X connect 29 0 28 0;
#X connect 30 0 31 0;
#X connect 32 0 27 0;
#X connect 33 0 41 0;
#X connect 34 0 41 0;
#X connect 35 0 41 0;
#X connect 45 0 1 0;
#X restore 605 338 pd date-time-simulator;
#X obj 208 163 param VoixM juste_thres;
#X obj 605 141 s toRemoteDirect;
#X msg 605 86 list nb_chante \$1;
#X msg 719 85 list nb_juste \$1;
#X obj 605 120 oscformat VoixM;
#X obj 605 61 r VoixM-nb_chante;
#X obj 719 59 r VoixM-nb_juste;
#X connect 11 0 12 0;
#X connect 12 0 71 0;
#X connect 13 0 14 0;
#X connect 14 0 24 0;
#X connect 15 0 72 0;
#X connect 16 0 26 0;
#X connect 17 0 15 0;
#X connect 18 0 16 0;
#X connect 19 0 73 0;
#X connect 19 1 32 1;
#X connect 21 0 70 0;
#X connect 22 0 23 0;
#X connect 23 0 21 0;
#X connect 24 0 30 0;
#X connect 24 1 30 1;
#X connect 26 0 31 0;
#X connect 26 1 31 1;
#X connect 29 0 41 0;
#X connect 30 0 25 0;
#X connect 31 0 27 0;
#X connect 32 0 74 0;
#X connect 32 0 28 0;
#X connect 33 0 41 1;
#X connect 34 0 43 1;
#X connect 35 0 37 0;
#X connect 36 0 55 0;
#X connect 37 0 38 0;
#X connect 38 0 39 0;
#X connect 40 0 20 0;
#X connect 40 0 36 0;
#X connect 41 0 42 0;
#X connect 42 0 46 0;
#X connect 43 0 45 0;
#X connect 44 0 43 0;
#X connect 45 0 46 0;
#X connect 46 0 63 0;
#X connect 47 0 48 0;
#X connect 47 0 54 0;
#X connect 48 0 49 0;
#X connect 49 0 50 0;
#X connect 51 0 52 0;
#X connect 52 0 53 0;
#X connect 53 0 54 0;
#X connect 54 0 35 0;
#X connect 55 0 35 0;
#X connect 55 1 35 1;
#X connect 56 0 58 0;
#X connect 56 0 61 0;
#X connect 57 1 59 0;
#X connect 57 2 56 1;
#X connect 57 3 77 0;
#X connect 59 0 56 0;
#X connect 63 0 67 0;
#X connect 64 0 65 0;
#X connect 64 0 75 0;
#X connect 65 0 66 0;
#X connect 66 0 67 0;
#X connect 67 0 47 0;
#X connect 68 0 69 0;
#X connect 68 0 76 0;
#X connect 69 0 65 0;
#X connect 69 0 46 0;
#X connect 69 1 67 1;
#X connect 70 0 19 0;
#X connect 70 1 57 0;
#X connect 71 0 30 0;
#X connect 72 0 31 0;
#X connect 73 0 32 0;
#X connect 77 0 78 0;
#X connect 77 1 62 0;
#X connect 77 1 60 0;
#X connect 78 0 62 0;
#X connect 78 0 60 0;
#X connect 82 0 84 0;
#X connect 83 0 84 0;
#X connect 84 0 81 0;
#X connect 85 0 82 0;
#X connect 86 0 83 0;
