#N canvas 248 242 450 300 12;
#X obj 138 35 inlet;
#X obj 138 60 t b a;
#X obj 138 85 list, f 5;
#X obj 138 110 list trim;
#X obj 205 164 outlet;
#X obj 41 33 r OSCrefresh;
#X obj 41 58 random 1000;
#X obj 41 83 del;
#X obj 44 115 bng 15 250 50 0 empty empty empty 17 7 0 10 -262144 -1
-1;
#X obj 138 135 route bang;
#X connect 0 0 1 0;
#X connect 1 0 2 0;
#X connect 1 1 2 1;
#X connect 2 0 3 0;
#X connect 3 0 9 0;
#X connect 5 0 6 0;
#X connect 6 0 7 0;
#X connect 7 0 2 0;
#X connect 8 0 2 0;
#X connect 9 1 4 0;
