#N canvas 1193 351 698 611 10;
#X obj 345 309 s toRemoteDirect;
#X obj 345 259 oscformat remote_server;
#X obj 345 235 list prepend entry;
#X obj 19 22 text define \$0-text;
#X obj 23 63 r fromRemote;
#X obj 23 86 route remote_server;
#X obj 23 132 symbol;
#X symbolatom 23 155 0 0 0 0 - - - 0;
#X obj 62 203 text set \$0-text;
#X msg 359 214 symbol ___;
#X msg 42 225 write -c ../remote_server_address.txt;
#X msg 345 97 read -c ../remote_server_address.txt;
#X obj 42 248 s \$0-text;
#X obj 23 178 t s b s;
#X obj 23 274 s REMOTE_SERVER_ADDRESS;
#X obj 345 120 s \$0-text;
#X obj 318 166 text get \$0-text;
#X symbolatom 318 189 0 0 0 0 - - - 0;
#X msg 318 145 0;
#X obj 356 17 loadbang;
#X obj 318 74 t b b;
#X obj 318 339 s REMOTE_SERVER_ADDRESS;
#X obj 318 212 t s s;
#X obj 300 27 bng 15 250 50 0 empty empty empty 17 7 0 10 #fcfcfc #000000 #000000;
#X obj 113 528 shell;
#X msg 113 391 symbol central.metalu.net;
#X msg 279 392 symbol connectserver;
#X obj 113 551 print;
#X msg 172 531 pwd;
#X obj 440 403 pdcontrol;
#X msg 440 379 dir;
#X obj 113 427 pack s s, f 55;
#X msg 260 512 killall autossh;
#X obj 80 367 r REMOTE_SERVER_ADDRESS;
#X obj 49 536 print;
#X obj 23 109 route entry local, f 33;
#X obj 120 131 sel 0 1;
#X msg 139 156 symbol connectserver;
#X msg 113 458 \$2/../../sshtunnel.sh \$1 &;
#X obj 328 50 del 2000;
#X obj 345 284 refresh;
#X connect 1 0 40 0;
#X connect 2 0 1 0;
#X connect 4 0 5 0;
#X connect 5 0 35 0;
#X connect 6 0 7 0;
#X connect 7 0 13 0;
#X connect 9 0 2 0;
#X connect 10 0 12 0;
#X connect 11 0 15 0;
#X connect 13 0 14 0;
#X connect 13 1 10 0;
#X connect 13 2 8 0;
#X connect 16 0 17 0;
#X connect 17 0 22 0;
#X connect 18 0 16 0;
#X connect 20 0 18 0;
#X connect 20 1 11 0;
#X connect 20 1 30 0;
#X connect 22 0 21 0;
#X connect 22 1 2 0;
#X connect 23 0 20 0;
#X connect 24 0 27 0;
#X connect 25 0 31 0;
#X connect 26 0 31 0;
#X connect 28 0 24 0;
#X connect 29 0 31 1;
#X connect 30 0 29 0;
#X connect 31 0 38 0;
#X connect 32 0 24 0;
#X connect 33 0 31 0;
#X connect 35 0 6 0;
#X connect 35 1 36 0;
#X connect 36 0 23 0;
#X connect 36 1 37 0;
#X connect 37 0 17 0;
#X connect 38 0 24 0;
#X connect 38 0 34 0;
#X connect 39 0 20 0;
#X connect 40 0 0 0;
